<?xml version="1.0" standalone="no"?>
<!DOCTYPE svg PUBLIC "-//W3C//DTD SVG 1.1//EN" "http://www.w3.org/Graphics/SVG/1.1/DTD/svg11.dtd" >
<svg xmlns="http://www.w3.org/2000/svg">
<metadata></metadata>
<defs>
<font id="engrezregular" horiz-adv-x="1085" >
<font-face units-per-em="2048" ascent="1536" descent="-512" />
<missing-glyph horiz-adv-x="430" />
<glyph unicode="&#xfb01;" horiz-adv-x="1224" d="M68 973v104l206 31v135q0 162 107 243t303 81q207 0 334 -41l-23 -129q-140 33 -284 33q-157 0 -218 -46t-61 -151v-129h619v-1104h-158v973h-461v-973h-158v973h-206z" />
<glyph unicode="&#xfb02;" horiz-adv-x="1236" d="M68 973v104l206 31v131q0 168 108.5 248t297.5 80q118 0 264 -31l107 20v-1556h-156v1409q-85 21 -193 21q-148 0 -209 -44.5t-61 -148.5v-133h264v-131h-264v-973h-158v973h-206z" />
<glyph unicode="&#xfb03;" horiz-adv-x="1843" d="M68 973v104l206 31v135q0 162 107 243t303 81q230 0 356 -54q105 54 263 54q206 0 333 -41l-22 -129q-140 33 -285 33q-157 0 -217.5 -45.5t-60.5 -149.5v-131h618v-1104h-160v973h-458v-973h-158v973h-461v-973h-158v973h-206zM432 1104h461v139q0 97 37 164 q-97 23 -219 23q-157 0 -218 -45.5t-61 -149.5v-131z" />
<glyph unicode="&#xfb04;" horiz-adv-x="1855" d="M68 973v104l206 31v135q0 162 107 243t303 81q230 0 356 -54q99 54 258 54q119 0 265 -31l106 20v-1556h-156v1409q-86 21 -192 21q-148 0 -209 -44.5t-61 -148.5v-133h264v-131h-264v-973h-158v973h-461v-973h-158v973h-206zM432 1104h461v135q0 103 39 168 q-100 23 -221 23q-157 0 -218 -45.5t-61 -149.5v-131z" />
<glyph horiz-adv-x="2048" />
<glyph horiz-adv-x="2048" />
<glyph unicode="&#xd;" horiz-adv-x="2048" />
<glyph unicode=" "  horiz-adv-x="430" />
<glyph unicode="&#x09;" horiz-adv-x="430" />
<glyph unicode="&#xa0;" horiz-adv-x="430" />
<glyph unicode="!" horiz-adv-x="542" d="M188 1128v310h168v-310q0 -394 -28 -686h-113q-27 314 -27 686zM190 0v254h164v-254h-164z" />
<glyph unicode="&#x22;" horiz-adv-x="792" d="M152 1427v117h145v-117q0 -204 -18 -352h-109q-18 103 -18 352zM496 1427v117h145v-117q0 -229 -18 -352h-109q-18 120 -18 352z" />
<glyph unicode="#" horiz-adv-x="1431" d="M96 387l21 127h221l70 389h-224l25 127h221l68 387h143l-68 -387h402l67 387h142l-68 -387h219l-22 -127h-219l-70 -389h221l-22 -127h-222l-67 -387h-141l67 387h-401l-68 -387h-143l67 387h-219zM481 514h402l69 389h-401z" />
<glyph unicode="$" horiz-adv-x="1091" d="M125 1042q0 170 90.5 259t273.5 106v242h140v-236q182 -4 289 -41l-23 -131q-141 29 -303 29q-168 0 -235.5 -52.5t-67.5 -177.5q0 -96 42.5 -143t176.5 -90l176 -59q88 -30 141 -57t92.5 -67.5t55.5 -94.5t16 -132q0 -178 -89 -269.5t-279 -113.5v-247h-140v239h-26 q-215 2 -328 47l20 131q181 -34 345 -34q186 0 259.5 58.5t73.5 186.5q0 89 -45 133.5t-180 87.5l-170 56q-170 56 -237.5 136.5t-67.5 233.5z" />
<glyph unicode="%" horiz-adv-x="1712" d="M104 1047q0 192 80.5 290.5t223.5 98.5t223 -98t80 -291q0 -197 -79.5 -295.5t-221.5 -98.5q-145 0 -225.5 99t-80.5 295zM238 1044q0 -145 42.5 -210.5t127.5 -65.5q87 0 129.5 66.5t42.5 209.5t-42.5 210t-129.5 67q-86 0 -128 -67t-42 -210zM375 0l829 1417h142 l-830 -1417h-141zM1001 373q0 192 80.5 290.5t223.5 98.5t223 -98t80 -291q0 -197 -79 -295t-224 -98q-144 0 -224 98.5t-80 294.5zM1135 371q0 -143 42 -209t126 -66q88 0 131 66.5t43 208.5q0 143 -42.5 209.5t-131.5 66.5q-84 0 -126 -66.5t-42 -209.5z" />
<glyph unicode="&#x26;" horiz-adv-x="1509" d="M96 356q0 79 29.5 144t85 113.5t115.5 82.5t141 68q-110 99 -156.5 177t-46.5 173q0 141 104.5 232.5t284.5 91.5q179 0 279 -91t100 -231q0 -250 -327 -389l391 -383q112 157 112 373h138q2 -16 2 -62q-9 -224 -152 -409l254 -246h-209l-145 145q-91 -79 -217.5 -124.5 t-276.5 -45.5q-130 0 -230.5 32.5t-159 88t-87.5 121.5t-29 139zM258 365q0 -108 89 -181t269 -73q233 0 383 131l-434 426q-152 -61 -229.5 -129t-77.5 -174zM416 1116q0 -79 43 -141t147 -156q136 57 207.5 124.5t71.5 170.5q0 91 -62.5 145t-169.5 54 q-114 0 -175.5 -55.5t-61.5 -141.5z" />
<glyph unicode="'" horiz-adv-x="448" d="M152 1427v117h145v-117q0 -204 -18 -352h-109q-18 103 -18 352z" />
<glyph unicode="(" horiz-adv-x="610" d="M121 627q0 294 79.5 551.5t202.5 433.5l127 -72q-117 -179 -186.5 -413t-69.5 -500t70 -502t186 -416l-127 -67q-123 174 -202.5 432t-79.5 553z" />
<glyph unicode=")" horiz-adv-x="610" d="M80 -291q116 180 186 416t70 502t-69.5 500t-186.5 413l127 72q123 -176 202.5 -433.5t79.5 -551.5t-80 -551.5t-202 -433.5z" />
<glyph unicode="*" horiz-adv-x="962" d="M113 1116l43 129l118 -39q118 -40 170 -88q-30 66 -30 191v125h135v-125q0 -125 -33 -193q61 53 172 90l119 39l43 -129l-121 -39q-117 -39 -192 -28q63 -33 139 -136l76 -102l-111 -78l-76 103q-74 102 -84 168q-15 -70 -86 -168l-73 -103l-111 78l74 104 q74 103 135 134q-77 -8 -189 28z" />
<glyph unicode="+" horiz-adv-x="1177" d="M113 643v137h405v408h144v-408h403v-137h-403v-405h-144v405h-405z" />
<glyph unicode="," horiz-adv-x="489" d="M86 -264q82 185 82 375q0 45 -4 77l162 21q2 -10 2 -49q0 -99 -42.5 -226.5t-92.5 -197.5h-107z" />
<glyph unicode="-" horiz-adv-x="905" d="M164 512v137h577v-137h-577z" />
<glyph unicode="." horiz-adv-x="489" d="M164 0v270h164v-270h-164z" />
<glyph unicode="/" horiz-adv-x="808" d="M86 -145l494 1640h143l-494 -1640h-143z" />
<glyph unicode="0" horiz-adv-x="1206" d="M143 709q0 194 33.5 336t96 227t146 125.5t189.5 40.5q87 0 156.5 -23.5t126.5 -77.5t95 -137.5t58.5 -207t20.5 -283.5q0 -193 -34.5 -335.5t-98 -227.5t-147 -125.5t-189.5 -40.5q-110 0 -191.5 38.5t-141.5 123t-90 226t-30 341.5zM305 707q0 -166 20.5 -282 t61 -181.5t92.5 -94t123 -28.5q69 0 120.5 28.5t92.5 94t62.5 182t21.5 281.5q0 166 -21 283t-61 183t-92 94.5t-121 28.5q-55 0 -99 -17.5t-82 -59t-63.5 -108t-40 -168.5t-14.5 -236z" />
<glyph unicode="1" horiz-adv-x="780" d="M76 1286l422 131h84v-1417h-160v1253l-338 -100z" />
<glyph unicode="2" horiz-adv-x="1077" d="M94 135q138 155 225.5 256t169 199.5t125.5 161.5t78.5 124.5t47 107t12.5 91.5q0 213 -269 213q-165 0 -315 -41l-18 135q126 50 348 50q193 0 303 -89t110 -256q0 -156 -126 -347q-94 -141 -346 -425q-37 -41 -148 -165h676l-19 -150h-839z" />
<glyph unicode="3" horiz-adv-x="1067" d="M109 25l22 133q128 -27 256 -27q73 0 127.5 6.5t104 25t81 49.5t50 82t18.5 120q0 121 -76.5 181t-238.5 60h-146v142h109q166 0 235.5 61.5t69.5 196.5q0 125 -71.5 178t-213.5 53q-143 0 -272 -29l-21 136q110 41 318 41q206 0 314 -92.5t108 -280.5q0 -141 -56.5 -220 t-148.5 -106q254 -51 254 -313q0 -124 -38 -211t-109.5 -135t-160.5 -69t-206 -21q-212 0 -309 39z" />
<glyph unicode="4" horiz-adv-x="1179" d="M82 481l571 936h242v-973h201l-19 -137h-182v-307h-156v307h-637zM215 444h524v336l4 525z" />
<glyph unicode="5" horiz-adv-x="1079" d="M150 702l28 715h737l-20 -147h-571l-15 -455q100 27 203 27q211 0 327.5 -107t116.5 -301q0 -213 -138.5 -331.5t-391.5 -118.5q-180 0 -268 30l24 144q114 -27 242 -27q180 0 275.5 80t95.5 221q0 132 -79 199t-231 67q-132 0 -258 -49z" />
<glyph unicode="6" horiz-adv-x="1140" d="M141 582q0 141 19.5 262t65.5 229.5t116 184.5t177 120.5t243 44.5q134 0 192 -26l-22 -131q-82 16 -170 16q-197 0 -307 -124.5t-136 -350.5q148 70 289 70q414 0 414 -449q0 -218 -118.5 -333t-319.5 -115q-99 0 -175.5 29t-126.5 80t-82 127.5t-45.5 165.5t-13.5 200z M301 555q0 -79 8.5 -143t29.5 -119.5t53.5 -93t82 -59t113.5 -21.5q272 0 272 305q0 168 -67 241.5t-207 73.5q-74 0 -153.5 -22t-127.5 -53q-4 -70 -4 -109z" />
<glyph unicode="7" horiz-adv-x="993" d="M82 1270v147h840v-137l-519 -1280h-174l525 1270h-672z" />
<glyph unicode="8" horiz-adv-x="1210" d="M137 377q0 140 71.5 226t184.5 118q-102 34 -159.5 117t-57.5 215q0 173 111 279t323 106t318 -103.5t106 -281.5q0 -128 -59 -214t-158 -118q256 -63 256 -340q0 -187 -120 -294t-349 -107q-236 0 -351.5 102.5t-115.5 294.5zM301 375q0 -126 76 -194t229 -68 q303 0 303 268q0 266 -303 266q-151 0 -228 -69.5t-77 -202.5zM338 1047q0 -123 69 -192t201 -69q133 0 199.5 68t66.5 193q0 124 -66 192t-204 68q-137 0 -201.5 -68.5t-64.5 -191.5z" />
<glyph unicode="9" horiz-adv-x="1138" d="M119 981q0 215 117 336t315 121q448 0 448 -635q0 -150 -18.5 -270t-62.5 -223t-114.5 -171t-177.5 -106.5t-247 -38.5q-130 0 -193 29l23 129q78 -17 174 -17q407 0 442 461q-149 -66 -295 -66q-205 0 -308 117.5t-103 333.5zM281 985q0 -164 71 -239.5t207 -75.5 q155 0 275 63q4 31 4 105q0 70 -6.5 131.5t-26 124.5t-50.5 107.5t-83 73t-121 28.5q-122 0 -196 -78t-74 -240z" />
<glyph unicode=":" horiz-adv-x="489" d="M164 0v270h164v-270h-164zM164 836v268h164v-268h-164z" />
<glyph unicode=";" horiz-adv-x="550" d="M121 -264q84 193 84 377q0 55 -8 75l165 29q5 -40 5 -55q0 -105 -39.5 -218t-98.5 -208h-108zM199 836v268h163v-268h-163z" />
<glyph unicode="&#x3c;" horiz-adv-x="1212" d="M100 643v137l957 437v-158q-50 -19 -241.5 -105t-362.5 -163t-181 -80q4 -1 177 -80.5t365 -165.5t243 -105v-161z" />
<glyph unicode="=" horiz-adv-x="1298" d="M170 410v135h960v-135h-960zM170 874v136h960v-136h-960z" />
<glyph unicode="&#x3e;" horiz-adv-x="1212" d="M156 199v159q50 20 243 107.5t363.5 166t175.5 79.5q-8 3 -179 80t-362 161.5t-241 104.5v160l954 -439v-135z" />
<glyph unicode="?" horiz-adv-x="935" d="M82 1403q120 51 317 51q205 0 323 -92.5t118 -257.5q0 -72 -24.5 -137t-62.5 -113t-92 -90t-105 -70.5t-110 -52.5l-14 -199h-125l-20 275q194 74 290.5 169t96.5 218q0 103 -75 154t-214 51q-162 0 -270 -41zM289 0v254h164v-254h-164z" />
<glyph unicode="@" horiz-adv-x="2080" d="M123 356q0 249 63.5 447t188 339t318 216.5t444.5 75.5q408 0 625.5 -192.5t217.5 -543.5q0 -333 -128.5 -517.5t-333.5 -184.5q-154 0 -222 104q-119 -104 -299 -104q-381 0 -381 401q0 287 141 437.5t388 150.5q126 0 210.5 -20t125.5 -45l-74 -740q28 -51 113 -51 q50 0 95 18.5t86 61.5t70 107.5t46.5 163.5t17.5 222q0 598 -711 598q-420 0 -637 -242t-217 -693q0 -332 189.5 -499t531.5 -167q129 0 226.5 13.5t218.5 47.5l28 -118q-159 -78 -485 -78q-407 0 -631.5 210t-224.5 582zM770 408q0 -153 56.5 -216t191.5 -63q78 0 147 25.5 t109 64.5l59 606q-74 27 -192 27q-368 0 -371 -444z" />
<glyph unicode="A" horiz-adv-x="1280" d="M49 0l483 1434h218l481 -1434h-172l-141 424h-564l-139 -424h-166zM401 561h471l-96 293q-66 196 -139 432q-53 -179 -139 -434z" />
<glyph unicode="B" horiz-adv-x="1251" d="M199 6v1424q129 16 391 16q232 0 352.5 -91t120.5 -292q0 -125 -57 -206.5t-140 -108.5q264 -54 264 -342q0 -210 -127.5 -314t-406.5 -104q-270 0 -397 18zM362 133q80 -8 244 -8q190 0 273.5 67.5t83.5 213.5q0 140 -77.5 199t-252.5 59h-271v-531zM362 797h250 q151 0 217 69t66 193q0 127 -71.5 189.5t-223.5 62.5q-165 0 -238 -8v-506z" />
<glyph unicode="C" horiz-adv-x="1169" d="M135 698q0 186 49.5 330t137.5 233t204.5 134t255.5 45q189 0 279 -33l-25 -137q-82 20 -235 20q-109 0 -197.5 -32.5t-157 -101t-106 -184t-37.5 -270.5q0 -121 24.5 -216.5t67.5 -159.5t105.5 -105.5t134.5 -59.5t158 -18q141 0 241 23l23 -135q-84 -37 -281 -37 q-142 0 -256 39.5t-201.5 122t-135.5 220t-48 322.5z" />
<glyph unicode="D" horiz-adv-x="1384" d="M199 4v1426q150 16 364 16q188 0 319.5 -44.5t212 -136.5t116.5 -224t36 -316q0 -367 -164.5 -552t-513.5 -185q-209 0 -370 16zM365 137q84 -8 202 -8q271 0 390.5 134t119.5 454q0 164 -29.5 276.5t-94 181.5t-158 99.5t-228.5 30.5q-114 0 -202 -9v-1159z" />
<glyph unicode="E" horiz-adv-x="1128" d="M201 0v1434h778l-18 -144h-596v-481h565v-143h-565v-523h636v-143h-800z" />
<glyph unicode="F" horiz-adv-x="1077" d="M201 0v1434h786l-18 -144h-604v-516h553v-143h-553v-631h-164z" />
<glyph unicode="G" horiz-adv-x="1335" d="M135 702q0 184 51.5 326.5t145 233.5t220.5 137.5t282 46.5q222 0 311 -39l-25 -137q-107 26 -280 26q-258 0 -397.5 -145.5t-139.5 -443.5q0 -574 492 -574q142 0 229 37v571h162v-665q-149 -88 -406 -88q-320 0 -482.5 182t-162.5 532z" />
<glyph unicode="H" horiz-adv-x="1417" d="M201 0v1434h164v-631h688v631h166v-1434h-166v657h-688v-657h-164z" />
<glyph unicode="I" horiz-adv-x="565" d="M201 0v1434h164v-1434h-164z" />
<glyph unicode="J" horiz-adv-x="841" d="M59 16l19 134q86 -17 186 -17q114 0 166.5 43t52.5 152v1106h164v-1102q0 -180 -93 -260t-275 -80q-157 0 -220 24z" />
<glyph unicode="K" horiz-adv-x="1236" d="M201 0v1434h164v-656l149 17l447 639h194l-506 -711l539 -723h-205l-467 633l-151 16v-649h-164z" />
<glyph unicode="L" horiz-adv-x="1044" d="M201 0v1434h164v-1291h622l-20 -143h-766z" />
<glyph unicode="M" horiz-adv-x="1798" d="M201 0v1434h241l457 -1115l461 1115h239v-1434h-159v797q0 349 6 460q0 -1 -20 -54t-64 -163.5t-96 -232.5l-283 -660h-174l-285 674q-49 115 -89.5 215.5t-60.5 153t-22 63.5v-7q0 -8 0.5 -22t1 -33.5t1 -45t1 -54.5t1 -63.5t1 -70.5t0.5 -77.5v-82.5v-797h-157z" />
<glyph unicode="N" horiz-adv-x="1458" d="M201 0v1434h221l426 -760q243 -432 262 -488q-10 125 -10 555v693h157v-1434h-213l-413 741q-266 473 -281 514q8 -94 8 -587v-668h-157z" />
<glyph unicode="O" horiz-adv-x="1425" d="M137 709q0 365 143 555t433 190q575 0 575 -729q0 -366 -143 -555.5t-430 -189.5q-292 0 -435 182t-143 547zM305 715q0 -301 99.5 -446.5t310.5 -145.5q209 0 306 145.5t97 450.5q0 302 -98.5 448t-308.5 146q-213 0 -309.5 -145t-96.5 -453z" />
<glyph unicode="P" horiz-adv-x="1177" d="M201 0v1430q137 18 366 18q258 0 388 -103.5t130 -332.5q0 -225 -131.5 -343t-371.5 -118q-129 0 -220 8v-559h-161zM362 700q110 -10 189 -10q84 0 147 14.5t114.5 49t78.5 99t27 157.5q0 161 -86 231t-259 70q-131 0 -211 -8v-603z" />
<glyph unicode="Q" horiz-adv-x="1425" d="M137 709q0 365 143 555t433 190q575 0 575 -729q0 -562 -332 -702q239 -139 496 -201q-34 -25 -100 -55.5t-109 -36.5q-102 34 -224.5 105t-225.5 149q-50 -4 -78 -4q-292 0 -435 182t-143 547zM305 715q0 -301 99.5 -446.5t310.5 -145.5q209 0 306 145.5t97 450.5 q0 302 -98.5 448t-308.5 146q-213 0 -309.5 -145t-96.5 -453z" />
<glyph unicode="R" horiz-adv-x="1241" d="M201 0v1430q133 16 377 16q251 0 375 -104.5t124 -325.5q0 -94 -23 -167.5t-63 -119t-84 -72.5t-96 -41l356 -616h-194l-326 582h-285v-582h-161zM362 725h220q186 0 257.5 70.5t71.5 224.5q0 152 -80 222.5t-249 70.5q-150 0 -220 -8v-580z" />
<glyph unicode="S" horiz-adv-x="1107" d="M131 1059q0 192 115.5 289.5t333.5 97.5q232 0 342 -39l-23 -137q-118 30 -299 30q-167 0 -236 -57.5t-69 -183.5q0 -97 44.5 -150t174.5 -96l168 -57q88 -29 143.5 -58t96 -71t58 -99t17.5 -137q0 -205 -123.5 -304t-377.5 -99q-234 0 -363 47l23 139q65 -14 99.5 -20 t101.5 -12.5t141 -6.5q127 0 201 30t103 84t29 142q0 91 -45.5 136.5t-179.5 88.5l-168 56q-168 54 -237.5 141t-69.5 246z" />
<glyph unicode="T" d="M80 1290v144h938l-19 -144h-368v-1290h-166v1290h-385z" />
<glyph unicode="U" horiz-adv-x="1406" d="M188 487v947h166v-947q0 -171 82.5 -265.5t270.5 -94.5t268 93.5t80 266.5v947h164v-947q0 -234 -129.5 -369.5t-384.5 -135.5q-261 0 -389 133.5t-128 371.5z" />
<glyph unicode="V" horiz-adv-x="1277" d="M45 1434h180l289 -863q120 -367 131 -415q5 44 131 419l285 859h172l-490 -1434h-208z" />
<glyph unicode="W" horiz-adv-x="1968" d="M72 1434h170l192 -760q6 -24 22.5 -90.5t23.5 -97t21 -89t22.5 -97.5t18.5 -89t17 -94q42 235 123 555l192 762h228l192 -762q91 -369 125 -559q48 252 123 559l195 762h159l-362 -1434h-234l-196 772q-73 286 -117 541q-38 -221 -119 -541l-196 -772h-236z" />
<glyph unicode="X" horiz-adv-x="1269" d="M51 0l486 745l-447 689h199l352 -557l352 557h189l-447 -689l484 -745h-203l-387 616l-387 -616h-191z" />
<glyph unicode="Y" horiz-adv-x="1200" d="M31 1434h198l177 -324q185 -330 200 -371q9 25 197 369l174 326h182l-473 -846v-588h-166v588z" />
<glyph unicode="Z" horiz-adv-x="1128" d="M92 127l707 1163h-662v144h838l16 -131l-704 -1158h751l-18 -145h-911z" />
<glyph unicode="[" horiz-adv-x="649" d="M184 -342v1937h371v-129h-215v-1681h215v-127h-371z" />
<glyph unicode="\" horiz-adv-x="808" d="M84 1495h143l494 -1640h-141z" />
<glyph unicode="]" horiz-adv-x="649" d="M94 -215h215v1681h-215v129h371v-1937h-371v127z" />
<glyph unicode="^" horiz-adv-x="1179" d="M162 606l336 826h166l335 -826h-137l-282 725l-285 -725h-133z" />
<glyph unicode="_" horiz-adv-x="1075" d="M29 -205h1020v-119h-1020v119z" />
<glyph unicode="`" horiz-adv-x="1136" d="M324 1497l143 76l246 -273l-117 -26z" />
<glyph unicode="a" d="M100 295q0 158 104.5 238t287.5 85l270 7v145q0 112 -54.5 159.5t-193.5 47.5q-164 0 -313 -29l-17 127q125 41 340 41q93 0 162 -15.5t123 -52t81.5 -101t27.5 -156.5v-791h-113q-14 34 -27 96q-58 -55 -139 -83.5t-205 -28.5q-160 0 -247 76t-87 235zM258 303 q0 -103 51.5 -146.5t171.5 -43.5q161 0 283 96v291l-254 -6q-127 -3 -189.5 -48.5t-62.5 -142.5z" />
<glyph unicode="b" horiz-adv-x="1167" d="M172 41v1491l158 22v-467q101 29 217 29q500 0 500 -532q0 -284 -137.5 -442t-391.5 -158q-213 0 -346 57zM330 152q86 -25 190 -25q174 0 268.5 114t94.5 330q0 214 -88.5 309t-280.5 95q-96 0 -184 -31v-792z" />
<glyph unicode="c" horiz-adv-x="983" d="M123 539q0 273 136.5 423t391.5 150q148 0 221 -25l-20 -131q-103 21 -182 21q-385 0 -385 -432q0 -221 94.5 -317.5t286.5 -96.5q99 0 196 19l15 -130q-82 -28 -240 -28q-255 0 -384.5 138t-129.5 409z" />
<glyph unicode="d" horiz-adv-x="1200" d="M123 530q0 286 127 436t377 150q101 0 239 -29v445l160 22v-1554h-117q-2 5 -24 96q-52 -49 -133.5 -80.5t-180.5 -31.5q-448 0 -448 546zM287 541q0 -228 76.5 -322t238.5 -94q144 0 268 86q-4 57 -4 199v536q-123 29 -225 29q-185 0 -269.5 -107.5t-84.5 -326.5z" />
<glyph unicode="e" horiz-adv-x="1140" d="M123 547q0 278 125.5 427.5t351.5 149.5q209 0 318.5 -121.5t109.5 -343.5q0 -93 -12 -147h-735q1 -110 27.5 -186t79 -120.5t124.5 -63.5t174 -19q151 0 266 39l29 -121q-95 -57 -326 -57q-277 0 -404.5 138t-127.5 425zM287 633h587q2 26 2 50q0 44 -7 84 q-11 61 -41 113t-89.5 81.5t-144.5 29.5q-285 0 -307 -358z" />
<glyph unicode="f" horiz-adv-x="753" d="M68 973v106l206 29v149q0 85 25 146.5t72 96.5t105 51t132 16q77 0 140 -13l-17 -131q-51 7 -96 7q-106 0 -154.5 -39t-48.5 -138v-149h258v-131h-258v-973h-158v973h-206z" />
<glyph unicode="g" horiz-adv-x="1181" d="M123 547q0 275 140 424t390 149q243 0 359 -65v-1078q0 -91 -24 -162t-67.5 -118t-107 -77t-138 -43t-165.5 -13q-212 0 -307 37l20 133q127 -31 287 -31q173 0 257.5 60.5t84.5 205.5v99q-123 -48 -270 -48q-241 0 -350 134.5t-109 392.5zM287 563q0 -220 75 -311.5 t256 -91.5q120 0 236 47v743q-83 31 -213 31q-172 0 -263 -110t-91 -308z" />
<glyph unicode="h" horiz-adv-x="1196" d="M176 0v1532l158 22v-477q165 43 315 43q196 0 288.5 -68t92.5 -241v-811h-160v782q0 107 -51 152t-192 45q-155 0 -293 -41v-938h-158z" />
<glyph unicode="i" horiz-adv-x="509" d="M176 0v1104h158v-1104h-158zM176 1290v246l158 23v-269h-158z" />
<glyph unicode="j" horiz-adv-x="509" d="M-113 -422l17 133q46 -8 96 -8q89 0 132.5 39.5t43.5 134.5v1227h158v-1227q0 -171 -83 -243t-243 -72q-67 0 -121 16zM176 1290v246l158 23v-269h-158z" />
<glyph unicode="k" horiz-adv-x="1067" d="M176 0v1532l158 22v-936l123 21l348 465h184l-405 -537l422 -567h-189l-360 492l-123 14v-506h-158z" />
<glyph unicode="l" horiz-adv-x="528" d="M184 0v1532l160 22v-1554h-160z" />
<glyph unicode="m" horiz-adv-x="1802" d="M172 0v1047q162 73 444 73q206 0 285 -71q145 71 369 71q192 0 278 -67.5t86 -241.5v-811h-157v784q0 54 -8.5 87.5t-32 60t-67.5 38t-114 11.5q-171 0 -288 -51q16 -47 16 -119v-811h-160v784q0 54 -7.5 87.5t-30.5 60t-67 38t-114 11.5q-173 0 -274 -35v-946h-158z" />
<glyph unicode="n" horiz-adv-x="1202" d="M172 0v1047q69 31 194 52t277 21q199 0 294 -68.5t95 -240.5v-811h-158v782q0 107 -52 153t-195 46q-178 0 -297 -35v-946h-158z" />
<glyph unicode="o" horiz-adv-x="1189" d="M125 545q0 579 475 579q235 0 350 -134t115 -431q0 -579 -477 -579q-233 0 -348 135t-115 430zM287 551q0 -231 73 -333.5t234 -102.5q159 0 234 105t75 335t-73 332t-234 102q-162 0 -235.5 -103.5t-73.5 -334.5z" />
<glyph unicode="p" horiz-adv-x="1177" d="M172 -438v1491q141 67 363 67q250 0 386 -140t136 -392q0 -287 -139 -437.5t-400 -150.5q-35 0 -66 2.5t-46 4.5t-41.5 7t-34.5 6v-434zM330 162q83 -21 172 -21q391 0 391 443q0 198 -94.5 296.5t-274.5 98.5q-106 0 -194 -31v-786z" />
<glyph unicode="q" horiz-adv-x="1191" d="M123 539q0 274 141.5 427.5t390.5 153.5q252 0 365 -65v-1469l-158 -24v481q-107 -43 -241 -43q-498 0 -498 539zM287 549q0 -217 86.5 -312.5t273.5 -95.5q116 0 215 43v766q-73 29 -203 29q-176 0 -274 -112t-98 -318z" />
<glyph unicode="r" horiz-adv-x="794" d="M172 0v1104h125q19 -68 22 -129q92 70 174.5 106.5t182.5 36.5q10 0 22 -1t20 -2t9 -1v-162q-50 4 -70 4q-160 0 -325 -92v-864h-160z" />
<glyph unicode="s" horiz-adv-x="946" d="M121 817q0 146 99.5 223.5t285.5 77.5q196 0 278 -28l-18 -127q-144 24 -254 24q-127 0 -182.5 -42t-55.5 -126q0 -82 37 -117.5t148 -68.5l125 -37q144 -41 202 -105.5t58 -181.5q0 -160 -103 -241.5t-305 -81.5q-226 0 -313 43l18 127q130 -35 297 -35 q133 0 193.5 44.5t60.5 135.5q0 70 -35 102.5t-159 69.5l-125 35q-136 39 -194 111.5t-58 197.5z" />
<glyph unicode="t" horiz-adv-x="800" d="M61 973v106l185 27v248l157 20v-270h320v-131h-320v-647q0 -115 41 -157t140 -42q84 0 147 14l14 -127q-65 -26 -192 -26q-309 0 -309 313v672h-183z" />
<glyph unicode="u" horiz-adv-x="1193" d="M168 340v764h158v-735q0 -70 8.5 -113t32.5 -75t68 -45t114 -13q172 0 315 84q-4 33 -4 172v725h158v-1104h-119q-18 55 -22 94q-133 -110 -365 -110q-98 0 -166.5 24.5t-106.5 73t-54.5 111t-16.5 147.5z" />
<glyph unicode="v" d="M57 1104h172l199 -584q5 -16 36 -111.5t54 -169.5t29 -106q24 107 119 389l198 582h164l-387 -1104h-197z" />
<glyph unicode="w" horiz-adv-x="1650" d="M74 1104h157l154 -574q61 -209 96 -399q30 164 92 399l156 574h193l157 -574q70 -242 97 -403q30 154 96 405l155 572h148l-299 -1104h-195l-157 573q-68 239 -99 410q-29 -162 -96 -410l-156 -573h-196z" />
<glyph unicode="x" horiz-adv-x="1058" d="M61 0l373 569l-352 535h190l260 -422l267 422h178l-354 -537l376 -567h-188l-289 455l-282 -455h-179z" />
<glyph unicode="y" horiz-adv-x="1101" d="M43 -426l14 131q47 -6 84 -6q144 0 233.5 77.5t139.5 223.5h-76l-383 1104h168l230 -678q91 -274 102 -328q25 111 100 330l224 676h157l-354 -1075q-33 -101 -73.5 -178t-102 -146.5t-150.5 -107t-202 -37.5q-71 0 -111 14z" />
<glyph unicode="z" horiz-adv-x="976" d="M88 115l578 858h-535v131h707l20 -113l-575 -858h598l-25 -133h-747z" />
<glyph unicode="{" horiz-adv-x="675" d="M96 555v145q90 16 125 76t35 166q0 25 -14.5 171.5t-14.5 174.5q0 150 75.5 232t217.5 82q25 0 60 -5l-2 -129h-46q-82 -3 -116.5 -47t-34.5 -135q0 -39 13.5 -176t13.5 -166q0 -266 -179 -317q68 -18 109 -64t55.5 -105.5t14.5 -144.5q0 -44 -13.5 -170t-13.5 -176 q0 -91 34.5 -134t116.5 -46q40 0 46 2l2 -129q-16 -4 -60 -4q-142 0 -217.5 80.5t-75.5 228.5q0 29 14.5 178t14.5 170q0 111 -34 170t-126 72z" />
<glyph unicode="|" horiz-adv-x="499" d="M184 -381v1972h131v-1972h-131z" />
<glyph unicode="}" horiz-adv-x="677" d="M98 -340l2 129q4 -2 45 -2q82 3 117 46t35 134q0 50 -13.5 176t-13.5 170q0 85 14.5 144.5t55.5 105.5t109 64q-179 51 -179 317q0 29 13.5 166t13.5 176q0 91 -35 135t-117 47h-45l-2 129q40 5 60 5q142 0 217.5 -82t75.5 -232q0 -28 -14.5 -174.5t-14.5 -171.5 q0 -106 35 -166t125 -76v-145q-91 -13 -125.5 -72.5t-34.5 -169.5q0 -21 14.5 -170t14.5 -178q0 -148 -75.5 -228.5t-217.5 -80.5q-44 0 -60 4z" />
<glyph unicode="~" horiz-adv-x="1325" d="M143 635q39 100 114 156.5t177 56.5q94 0 254 -76q134 -63 205 -63q66 0 107 26.5t75 98.5l111 -48q-87 -211 -285 -211q-92 0 -260 76q-132 62 -201 62q-61 0 -105 -29.5t-79 -97.5z" />
<glyph unicode="&#xa1;" horiz-adv-x="522" d="M176 8q0 339 27 656h116q27 -285 27 -656v-344h-170v344zM180 852v252h164v-252h-164z" />
<glyph unicode="&#xa2;" horiz-adv-x="1011" d="M117 692q0 243 111.5 389t320.5 174v209h141v-198q115 -3 184 -25l-18 -129q-91 16 -188 16q-389 0 -389 -432q0 -221 94.5 -316t288.5 -95q120 0 198 16l17 -127q-65 -26 -187 -29v-198h-141v203q-218 22 -325 156.5t-107 385.5z" />
<glyph unicode="&#xa3;" horiz-adv-x="1128" d="M119 119q66 39 101.5 100t41.5 170l17 266h-154v129h158l14 236q6 108 40 188.5t91 128.5t128.5 71.5t158.5 23.5q173 0 270 -39l-27 -125q-107 24 -233 24q-133 0 -197.5 -72.5t-72.5 -215.5l-11 -220h433l-15 -129h-426l-10 -206q-8 -117 -34 -191.5t-77 -118.5h691 v-139h-859z" />
<glyph unicode="&#xa4;" horiz-adv-x="1232" d="M141 305l127 127q-82 109 -82 254q0 143 82 252l-127 129l95 94l124 -129q110 80 256 80q143 0 254 -78l127 127l93 -94l-125 -127q82 -114 82 -254q0 -142 -84 -254l127 -127l-93 -94l-129 127q-105 -76 -252 -76q-144 0 -256 76l-124 -127zM319 686q0 -130 82.5 -213.5 t214.5 -83.5t214.5 83.5t82.5 213.5t-83 214.5t-214 84.5t-214 -84.5t-83 -214.5z" />
<glyph unicode="&#xa5;" horiz-adv-x="1298" d="M86 1421h195l376 -692l371 692h180l-331 -592h239v-124h-309l-70 -127v-58h379v-127h-379v-393h-166v393h-383v127h383v58l-73 127h-310v124h238z" />
<glyph unicode="&#xa6;" horiz-adv-x="518" d="M190 -221v653h136v-653h-136zM190 780v652h136v-652h-136z" />
<glyph unicode="&#xa7;" horiz-adv-x="1103" d="M100 946q0 111 42 213t117.5 180t188.5 124t246 46q86 0 158 -16l-18 -127q-58 18 -136 18q-149 0 -232 -63t-83 -170q0 -64 34.5 -124t90 -111.5t123 -103.5t134.5 -110t122.5 -121t90 -146t34.5 -175q0 -111 -44.5 -210t-124 -174t-200 -119t-264.5 -44q-99 0 -186 23 l22 131q83 -27 168 -27q163 0 246.5 69t83.5 177q0 61 -34 117.5t-88 103.5t-119 95.5t-130.5 103.5t-119.5 116.5t-88 145t-34 178.5zM215 952q0 -63 24.5 -122t64.5 -105t91.5 -93t106.5 -86t108.5 -85t98 -89.5t74.5 -99t38 -114.5t-10 -135h10q70 100 70 237 q0 65 -23.5 125.5t-63 107t-90.5 93.5t-105 86t-108 84t-98.5 88t-76.5 97.5t-42.5 112t3.5 132.5h-11q-61 -99 -61 -234z" />
<glyph unicode="&#xa8;" horiz-adv-x="1099" d="M248 1323v211h147v-211h-147zM707 1323v211h145v-211h-145z" />
<glyph unicode="&#xa9;" horiz-adv-x="1728" d="M131 713q0 171 57.5 312t157.5 234t234 144t288 51q153 0 286 -50t231.5 -142t155 -232t56.5 -311q0 -226 -98 -395.5t-263.5 -256.5t-373.5 -87q-155 0 -288 50t-232 141.5t-155 231t-56 310.5zM258 715q0 -148 46.5 -266t128.5 -194t192 -116.5t239 -40.5 q130 0 240.5 40.5t193 116.5t129 195.5t46.5 268.5t-47 267.5t-129.5 194t-192 115t-238.5 39.5t-239 -40t-192.5 -116t-129.5 -195.5t-47 -268.5zM516 709q0 200 108 314t296 114q99 0 155 -23l-16 -100q-69 16 -127 16q-133 0 -213 -77.5t-80 -239.5q0 -154 75.5 -235 t221.5 -81q54 0 139 19l15 -99q-54 -28 -172 -28q-191 0 -296.5 113t-105.5 307z" />
<glyph unicode="&#xaa;" horiz-adv-x="835" d="M154 940q0 178 231 190l162 5v77q0 66 -31.5 92.5t-112.5 26.5q-112 0 -186 -22l-12 90q61 26 203 26q122 0 186.5 -45t64.5 -155v-471h-84q-14 28 -18 55q-64 -64 -192 -64q-211 0 -211 195zM176 561v94h483v-94h-483zM268 942q0 -59 28.5 -82.5t94.5 -23.5q92 0 158 55 q-2 8 -2 65v91l-144 -3q-70 -4 -102.5 -29t-32.5 -73z" />
<glyph unicode="&#xab;" horiz-adv-x="1099" d="M125 559l260 387h164l-264 -387q11 -14 131.5 -193.5t132.5 -193.5h-164zM535 559l260 387h166l-265 -387q11 -14 132.5 -193t132.5 -194h-166z" />
<glyph unicode="&#xac;" horiz-adv-x="1349" d="M158 827v125h1016v-544h-125v419h-891z" />
<glyph unicode="&#xad;" horiz-adv-x="905" d="M164 512v137h577v-137h-577z" />
<glyph unicode="&#xae;" horiz-adv-x="1107" d="M127 1028q0 188 120.5 307t307.5 119q184 0 305 -120t121 -308q0 -187 -120.5 -306.5t-307.5 -119.5q-185 0 -305.5 120t-120.5 308zM213 1028q0 -152 97 -249t243 -97q147 0 244.5 96.5t97.5 247.5q0 153 -96.5 249.5t-243.5 96.5q-148 0 -245 -96t-97 -248zM416 805 v450q61 11 131 11q84 0 127 -37.5t43 -106.5q0 -59 -24.5 -91.5t-59.5 -41.5l110 -184h-94l-98 172h-55v-172h-80zM496 1047h55q86 0 86 73q0 40 -20 59t-64 19q-37 0 -57 -2v-149z" />
<glyph unicode="&#xaf;" horiz-adv-x="1136" d="M258 1393v112h625v-112h-625z" />
<glyph unicode="&#xb0;" horiz-adv-x="843" d="M125 1159q0 132 84 211.5t215 79.5t213 -78.5t82 -208.5q0 -131 -84.5 -212t-214.5 -81t-212.5 79t-82.5 210zM244 1161q0 -83 49 -132.5t131 -49.5q77 0 125.5 50.5t48.5 131.5q0 82 -48 131t-128 49t-129 -49.5t-49 -130.5z" />
<glyph unicode="&#xb1;" horiz-adv-x="1253" d="M147 0v137h957v-137h-957zM152 653v135h405v400h141v-400h406v-135h-406v-391h-141v391h-405z" />
<glyph unicode="&#xb2;" horiz-adv-x="774" d="M117 969q196 176 274 279t78 173q0 117 -137 117q-72 0 -164 -18l-18 94q81 28 196 28q124 0 187 -56t63 -154q0 -88 -78 -197.5t-244 -257.5h361l-17 -105h-489z" />
<glyph unicode="&#xb3;" horiz-adv-x="724" d="M125 885l16 92q78 -19 146 -19q186 0 186 136q0 62 -36.5 89t-119.5 27h-67v97h43q86 0 121 31t35 94q0 110 -148 110q-75 0 -147 -16l-15 90q66 24 174 24q252 0 252 -202q0 -67 -30 -110.5t-80 -61.5q139 -24 139 -166q0 -131 -76.5 -185.5t-218.5 -54.5 q-105 0 -174 25z" />
<glyph unicode="&#xb4;" horiz-adv-x="1136" d="M350 1300l246 273l143 -76l-272 -223z" />
<glyph unicode="&#xb5;" horiz-adv-x="1224" d="M184 -436v1540h158v-742q0 -129 50 -184t177 -55q163 0 310 80q-7 65 -7 188v713h160v-881q0 -64 22 -89t70 -30v-108q-28 -8 -51 -8q-132 0 -170 108q-155 -119 -334 -119q-158 0 -227 86v-477z" />
<glyph unicode="&#xb6;" horiz-adv-x="1165" d="M86 1020q0 117 36.5 200.5t106.5 131.5t161.5 70t211.5 22q240 0 367 -25v-1702h-142v1598q-25 2 -147 2v-1600h-143v924q-23 -2 -78 -2q-373 0 -373 381z" />
<glyph unicode="&#xb7;" horiz-adv-x="491" d="M164 590v280h164v-280h-164z" />
<glyph unicode="&#xb8;" horiz-adv-x="813" d="M276 -393q123 68 123 160q0 65 -45 129h152q39 -61 39 -134q0 -76 -55.5 -141.5t-153.5 -101.5z" />
<glyph unicode="&#xb9;" horiz-adv-x="468" d="M-12 1554l250 70h65v-752h-115v627l-196 -43z" />
<glyph unicode="&#xba;" horiz-adv-x="884" d="M150 1081q0 346 294 346q140 0 213.5 -80.5t73.5 -259.5q0 -354 -291 -354q-142 0 -216 83t-74 265zM207 557v96h483v-96h-483zM264 1081q0 -140 45 -196t133 -56q84 0 130 58t46 196q0 140 -44 193t-130 53q-89 0 -134.5 -54.5t-45.5 -193.5z" />
<glyph unicode="&#xbb;" horiz-adv-x="1099" d="M139 172l264 387l-264 387h166l260 -387l-260 -387h-166zM551 172l264 387l-264 387h166l258 -387l-258 -387h-166z" />
<glyph unicode="&#xbc;" horiz-adv-x="1472" d="M84 1348l250 69h65v-751h-114v626l-197 -43zM258 0l803 1417h119l-803 -1417h-119zM799 268l317 488h156v-496h108l-12 -98h-96v-158h-113v158h-344zM901 260h260v402z" />
<glyph unicode="&#xbd;" horiz-adv-x="1499" d="M84 1348l250 69h65v-751h-114v626l-197 -43zM258 0l803 1417h119l-803 -1417h-119zM877 100q195 175 273.5 279t78.5 174q0 117 -137 117q-67 0 -164 -19l-19 94q84 29 197 29q124 0 187 -56.5t63 -154.5q0 -88 -78 -197t-244 -257h361l-17 -105h-489z" />
<glyph unicode="&#xbe;" horiz-adv-x="1562" d="M115 670l16 92q78 -19 145 -19q187 0 187 136q0 62 -36.5 89t-119.5 27h-67v97h43q86 0 120.5 31t34.5 94q0 110 -147 110q-76 0 -148 -16l-14 90q66 24 174 24q252 0 252 -202q0 -131 -111 -172q140 -25 140 -166q0 -131 -76.5 -185.5t-218.5 -54.5q-105 0 -174 25z M352 0l803 1417h119l-803 -1417h-119zM889 268l317 488h156v-496h108l-12 -98h-96v-158h-113v158h-344zM991 260h260v402z" />
<glyph unicode="&#xbf;" horiz-adv-x="929" d="M37 0q0 -165 117.5 -257.5t322.5 -92.5q198 0 318 51l-33 135q-108 -41 -270 -41q-139 0 -214 51t-75 154q0 123 96.5 218t290.5 169l-21 275h-125l-14 -199q-59 -24 -110 -52.5t-105 -70.5t-91.5 -90t-62 -113t-24.5 -137zM424 850v254h164v-254h-164z" />
<glyph unicode="&#xc0;" horiz-adv-x="1280" d="M49 0l483 1434h218l481 -1434h-172l-141 424h-564l-139 -424h-166zM354 1747l144 76l245 -273l-116 -26zM401 561h471l-96 293q-66 196 -139 432q-53 -179 -139 -434z" />
<glyph unicode="&#xc1;" horiz-adv-x="1280" d="M49 0l483 1434h218l481 -1434h-172l-141 424h-564l-139 -424h-166zM401 561h471l-96 293q-66 196 -139 432q-53 -179 -139 -434zM541 1534l245 272l144 -75l-273 -224z" />
<glyph unicode="&#xc2;" horiz-adv-x="1280" d="M49 0l483 1434h218l481 -1434h-172l-141 424h-564l-139 -424h-166zM313 1642l324 203l326 -203l-74 -73l-252 125l-250 -125zM401 561h471l-96 293q-66 196 -139 432q-53 -179 -139 -434z" />
<glyph unicode="&#xc3;" horiz-adv-x="1280" d="M49 0l483 1434h218l481 -1434h-172l-141 424h-564l-139 -424h-166zM297 1575q-1 105 52.5 158t129.5 53q56 0 113 -24t107.5 -48t91.5 -24q75 0 75 100h115q-1 -105 -51 -158t-127 -53q-53 0 -111 23.5t-111 47t-92 23.5q-36 0 -55.5 -26t-19.5 -72h-117zM401 561h471 l-96 293q-66 196 -139 432q-53 -179 -139 -434z" />
<glyph unicode="&#xc4;" horiz-adv-x="1280" d="M49 0l483 1434h218l481 -1434h-172l-141 424h-564l-139 -424h-166zM336 1573v211h147v-211h-147zM401 561h471l-96 293q-66 196 -139 432q-53 -179 -139 -434zM795 1573v211h145v-211h-145z" />
<glyph unicode="&#xc5;" horiz-adv-x="1280" d="M49 0l483 1434h43q-66 15 -105.5 66t-39.5 124q0 92 59 148.5t152 56.5t151 -56t58 -149q0 -71 -39.5 -123t-103.5 -67h43l481 -1434h-172l-141 424h-564l-139 -424h-166zM401 561h471l-96 293q-66 196 -139 432q-53 -179 -139 -434zM528 1624q0 -51 31 -84t82 -33 q49 0 81 33t32 84q0 50 -32 82.5t-81 32.5q-50 0 -81.5 -32.5t-31.5 -82.5z" />
<glyph unicode="&#xc6;" horiz-adv-x="1904" d="M12 0l856 1434h887l-16 -144h-602v-481h569v-143h-569v-523h639v-143h-799v475h-498l-280 -475h-187zM563 616h414v699z" />
<glyph unicode="&#xc7;" horiz-adv-x="1169" d="M135 698q0 186 49.5 330t137.5 233t204.5 134t255.5 45q189 0 279 -33l-25 -137q-82 20 -235 20q-109 0 -197.5 -32.5t-157 -101t-106 -184t-37.5 -270.5q0 -121 24.5 -216.5t67.5 -159.5t105.5 -105.5t134.5 -59.5t158 -18q141 0 241 23l23 -135q-84 -37 -281 -37 q-142 0 -256 39.5t-201.5 122t-135.5 220t-48 322.5zM565 -393q123 68 123 160q0 65 -45 129h152q39 -61 39 -134q0 -76 -55.5 -141.5t-153.5 -101.5z" />
<glyph unicode="&#xc8;" horiz-adv-x="1128" d="M201 0v1434h778l-18 -144h-596v-481h565v-143h-565v-523h636v-143h-800zM297 1747l143 76l246 -273l-117 -26z" />
<glyph unicode="&#xc9;" horiz-adv-x="1128" d="M201 0v1434h778l-18 -144h-596v-481h565v-143h-565v-523h636v-143h-800zM487 1550l246 273l144 -76l-273 -223z" />
<glyph unicode="&#xca;" horiz-adv-x="1128" d="M201 0v1434h778l-18 -144h-596v-481h565v-143h-565v-523h636v-143h-800zM260 1642l324 203l325 -203l-73 -73l-252 125l-250 -125z" />
<glyph unicode="&#xcb;" horiz-adv-x="1128" d="M201 0v1434h778l-18 -144h-596v-481h565v-143h-565v-523h636v-143h-800zM283 1573v211h147v-211h-147zM741 1573v211h146v-211h-146z" />
<glyph unicode="&#xcc;" horiz-adv-x="565" d="M8 1747l144 76l245 -273l-116 -26zM201 0v1434h164v-1434h-164z" />
<glyph unicode="&#xcd;" horiz-adv-x="565" d="M166 1550l246 273l143 -76l-272 -223zM201 0v1434h164v-1434h-164z" />
<glyph unicode="&#xce;" horiz-adv-x="565" d="M-41 1642l324 203l325 -203l-73 -73l-252 125l-250 -125zM201 0v1434h164v-1434h-164z" />
<glyph unicode="&#xcf;" horiz-adv-x="565" d="M-18 1573v211h147v-211h-147zM201 0v1434h164v-1434h-164zM440 1573v211h146v-211h-146z" />
<glyph unicode="&#xd0;" horiz-adv-x="1398" d="M53 655v133h160v642q150 16 365 16q188 0 319.5 -44.5t212 -136.5t116.5 -224t36 -316q0 -367 -165 -552t-515 -185q-208 0 -369 16v651h-160zM379 139q86 -10 203 -10q270 0 389 134.5t119 453.5q0 217 -55 346.5t-164.5 185.5t-288.5 56q-96 0 -203 -11v-506h311 l-20 -133h-291v-516z" />
<glyph unicode="&#xd1;" horiz-adv-x="1458" d="M201 0v1434h221l426 -760q243 -432 262 -488q-10 125 -10 555v693h157v-1434h-213l-413 741q-266 473 -281 514q8 -94 8 -587v-668h-157zM385 1575q-1 105 52.5 158t129.5 53q56 0 113 -24t107.5 -48t91.5 -24q75 0 75 100h115q-1 -105 -51 -158t-127 -53 q-53 0 -111 23.5t-110.5 47t-91.5 23.5q-36 0 -56 -26t-20 -72h-117z" />
<glyph unicode="&#xd2;" horiz-adv-x="1425" d="M137 709q0 365 143 555t433 190q575 0 575 -729q0 -366 -143 -555.5t-430 -189.5q-292 0 -435 182t-143 547zM305 715q0 -301 99.5 -446.5t310.5 -145.5q209 0 306 145.5t97 450.5q0 302 -98.5 448t-308.5 146q-213 0 -309.5 -145t-96.5 -453zM440 1747l144 76l245 -273 l-116 -26z" />
<glyph unicode="&#xd3;" horiz-adv-x="1425" d="M137 709q0 365 143 555t433 190q575 0 575 -729q0 -366 -143 -555.5t-430 -189.5q-292 0 -435 182t-143 547zM305 715q0 -301 99.5 -446.5t310.5 -145.5q209 0 306 145.5t97 450.5q0 302 -98.5 448t-308.5 146q-213 0 -309.5 -145t-96.5 -453zM596 1550l246 273l143 -76 l-272 -223z" />
<glyph unicode="&#xd4;" horiz-adv-x="1425" d="M137 709q0 365 143 555t433 190q575 0 575 -729q0 -366 -143 -555.5t-430 -189.5q-292 0 -435 182t-143 547zM305 715q0 -301 99.5 -446.5t310.5 -145.5q209 0 306 145.5t97 450.5q0 302 -98.5 448t-308.5 146q-213 0 -309.5 -145t-96.5 -453zM385 1642l324 203l325 -203 l-73 -73l-252 125l-250 -125z" />
<glyph unicode="&#xd5;" horiz-adv-x="1425" d="M137 709q0 365 143 555t433 190q575 0 575 -729q0 -366 -143 -555.5t-430 -189.5q-292 0 -435 182t-143 547zM305 715q0 -301 99.5 -446.5t310.5 -145.5q209 0 306 145.5t97 450.5q0 302 -98.5 448t-308.5 146q-213 0 -309.5 -145t-96.5 -453zM369 1575q-1 105 52.5 158 t129.5 53q56 0 113 -24t107 -48t91 -24q76 0 76 100h115q-1 -105 -51.5 -158t-127.5 -53q-53 0 -111 23.5t-110.5 47t-91.5 23.5q-36 0 -56 -26t-20 -72h-116z" />
<glyph unicode="&#xd6;" horiz-adv-x="1425" d="M137 709q0 365 143 555t433 190q575 0 575 -729q0 -366 -143 -555.5t-430 -189.5q-292 0 -435 182t-143 547zM305 715q0 -301 99.5 -446.5t310.5 -145.5q209 0 306 145.5t97 450.5q0 302 -98.5 448t-308.5 146q-213 0 -309.5 -145t-96.5 -453zM408 1573v211h147v-211 h-147zM866 1573v211h146v-211h-146z" />
<glyph unicode="&#xd7;" horiz-adv-x="1101" d="M141 397l316 314l-316 313l99 98l311 -315l311 315l101 -100l-316 -311l316 -312l-101 -98l-311 313l-311 -315z" />
<glyph unicode="&#xd8;" horiz-adv-x="1425" d="M137 709q0 365 143 555t433 190q218 0 348 -106l84 129l100 -64l-98 -147q141 -181 141 -541q0 -366 -143 -555.5t-430 -189.5q-216 0 -348 102l-82 -125l-103 63l94 144q-139 179 -139 545zM305 715q0 -277 66 -404l606 908q-101 96 -266 96q-213 0 -309.5 -145.5 t-96.5 -454.5zM451 213q91 -94 264 -94q209 0 306 146.5t97 453.5q0 281 -65 397z" />
<glyph unicode="&#xd9;" horiz-adv-x="1406" d="M188 487v947h166v-947q0 -171 82.5 -265.5t270.5 -94.5t268 93.5t80 266.5v947h164v-947q0 -234 -129.5 -369.5t-384.5 -135.5q-261 0 -389 133.5t-128 371.5zM432 1747l143 76l246 -273l-116 -26z" />
<glyph unicode="&#xda;" horiz-adv-x="1406" d="M188 487v947h166v-947q0 -171 82.5 -265.5t270.5 -94.5t268 93.5t80 266.5v947h164v-947q0 -234 -129.5 -369.5t-384.5 -135.5q-261 0 -389 133.5t-128 371.5zM590 1550l246 273l143 -76l-272 -223z" />
<glyph unicode="&#xdb;" horiz-adv-x="1406" d="M188 487v947h166v-947q0 -171 82.5 -265.5t270.5 -94.5t268 93.5t80 266.5v947h164v-947q0 -234 -129.5 -369.5t-384.5 -135.5q-261 0 -389 133.5t-128 371.5zM379 1642l323 203l326 -203l-74 -73l-252 125l-249 -125z" />
<glyph unicode="&#xdc;" horiz-adv-x="1406" d="M188 487v947h166v-947q0 -171 82.5 -265.5t270.5 -94.5t268 93.5t80 266.5v947h164v-947q0 -234 -129.5 -369.5t-384.5 -135.5q-261 0 -389 133.5t-128 371.5zM401 1573v211h148v-211h-148zM860 1573v211h146v-211h-146z" />
<glyph unicode="&#xdd;" horiz-adv-x="1200" d="M31 1434h198l177 -324q185 -330 200 -371q9 25 197 369l174 326h182l-473 -846v-588h-166v588zM487 1550l246 273l144 -76l-273 -223z" />
<glyph unicode="&#xde;" horiz-adv-x="1146" d="M201 0v1434h155v-275q95 6 195 6q235 0 356 -101.5t121 -328.5q0 -219 -123 -332.5t-350 -113.5q-106 0 -199 8v-297h-155zM356 440q80 -8 197 -8q153 0 231 71t78 232q0 153 -78.5 223t-236.5 70q-91 0 -191 -10v-578z" />
<glyph unicode="&#xdf;" horiz-adv-x="1232" d="M176 -438v1546q0 225 109.5 341t324.5 116q185 0 287 -88.5t102 -239.5q0 -63 -21.5 -121.5t-52.5 -102t-62.5 -81.5t-53 -74t-21.5 -67q0 -35 26.5 -68.5t66 -60t86 -62t86 -71.5t66 -91t26.5 -119q0 -154 -100 -242.5t-297 -88.5q-176 0 -244 35l24 122 q102 -22 207 -22q133 0 193.5 48t60.5 146q0 39 -20 74t-52.5 61.5t-71.5 52.5t-78 53.5t-71.5 58t-52.5 72t-20 89.5q0 47 22.5 93t54.5 85t63.5 79t54 91t22.5 105q0 93 -59 143.5t-177 50.5q-136 0 -205 -74.5t-69 -242.5v-1524z" />
<glyph unicode="&#xe0;" d="M100 295q0 158 104.5 238t287.5 85l270 7v145q0 112 -54.5 159.5t-193.5 47.5q-164 0 -313 -29l-17 127q125 41 340 41q93 0 162 -15.5t123 -52t81.5 -101t27.5 -156.5v-791h-113q-14 34 -27 96q-58 -55 -139 -83.5t-205 -28.5q-160 0 -247 76t-87 235zM231 1497l144 76 l246 -273l-117 -26zM258 303q0 -103 51.5 -146.5t171.5 -43.5q161 0 283 96v291l-254 -6q-127 -3 -189.5 -48.5t-62.5 -142.5z" />
<glyph unicode="&#xe1;" d="M100 295q0 158 104.5 238t287.5 85l270 7v145q0 112 -54.5 159.5t-193.5 47.5q-164 0 -313 -29l-17 127q125 41 340 41q93 0 162 -15.5t123 -52t81.5 -101t27.5 -156.5v-791h-113q-14 34 -27 96q-58 -55 -139 -83.5t-205 -28.5q-160 0 -247 76t-87 235zM258 303 q0 -103 51.5 -146.5t171.5 -43.5q161 0 283 96v291l-254 -6q-127 -3 -189.5 -48.5t-62.5 -142.5zM442 1300l246 273l143 -76l-272 -223z" />
<glyph unicode="&#xe2;" d="M100 295q0 158 104.5 238t287.5 85l270 7v145q0 112 -54.5 159.5t-193.5 47.5q-164 0 -313 -29l-17 127q125 41 340 41q93 0 162 -15.5t123 -52t81.5 -101t27.5 -156.5v-791h-113q-14 34 -27 96q-58 -55 -139 -83.5t-205 -28.5q-160 0 -247 76t-87 235zM219 1393l324 202 l325 -202l-73 -74l-252 125l-250 -125zM258 303q0 -103 51.5 -146.5t171.5 -43.5q161 0 283 96v291l-254 -6q-127 -3 -189.5 -48.5t-62.5 -142.5z" />
<glyph unicode="&#xe3;" d="M100 295q0 158 104.5 238t287.5 85l270 7v145q0 112 -54.5 159.5t-193.5 47.5q-164 0 -313 -29l-17 127q125 41 340 41q93 0 162 -15.5t123 -52t81.5 -101t27.5 -156.5v-791h-113q-14 34 -27 96q-58 -55 -139 -83.5t-205 -28.5q-160 0 -247 76t-87 235zM203 1325 q-1 105 52.5 158t129.5 53q56 0 113 -24t107 -48t91 -24q76 0 76 100h115q-1 -105 -51 -158t-127 -53q-53 0 -111 23.5t-111 47t-92 23.5q-36 0 -56 -26t-20 -72h-116zM258 303q0 -103 51.5 -146.5t171.5 -43.5q161 0 283 96v291l-254 -6q-127 -3 -189.5 -48.5t-62.5 -142.5 z" />
<glyph unicode="&#xe4;" d="M100 295q0 158 104.5 238t287.5 85l270 7v145q0 112 -54.5 159.5t-193.5 47.5q-164 0 -313 -29l-17 127q125 41 340 41q93 0 162 -15.5t123 -52t81.5 -101t27.5 -156.5v-791h-113q-14 34 -27 96q-58 -55 -139 -83.5t-205 -28.5q-160 0 -247 76t-87 235zM242 1323v211h147 v-211h-147zM258 303q0 -103 51.5 -146.5t171.5 -43.5q161 0 283 96v291l-254 -6q-127 -3 -189.5 -48.5t-62.5 -142.5zM700 1323v211h146v-211h-146z" />
<glyph unicode="&#xe5;" d="M100 295q0 158 104.5 238t287.5 85l270 7v145q0 112 -54.5 159.5t-193.5 47.5q-164 0 -313 -29l-17 127q125 41 340 41q93 0 162 -15.5t123 -52t81.5 -101t27.5 -156.5v-791h-113q-14 34 -27 96q-58 -55 -139 -83.5t-205 -28.5q-160 0 -247 76t-87 235zM258 303 q0 -103 51.5 -146.5t171.5 -43.5q161 0 283 96v291l-254 -6q-127 -3 -189.5 -48.5t-62.5 -142.5zM336 1448q0 92 58.5 148.5t152.5 56.5q92 0 150.5 -56t58.5 -149q0 -90 -59 -146.5t-150 -56.5q-93 0 -152 56.5t-59 146.5zM432 1448q0 -51 32.5 -83t82.5 -32q48 0 79 32 t31 83t-31.5 84t-78.5 33q-51 0 -83 -33t-32 -84z" />
<glyph unicode="&#xe6;" horiz-adv-x="1775" d="M98 299q0 82 28.5 141.5t83 96.5t125.5 56.5t165 24.5l268 17v88q0 58 -5 95t-20 70.5t-43.5 51.5t-75 28.5t-114.5 10.5q-155 0 -305 -27l-21 123q109 41 336 41q116 0 190 -24.5t109 -66t53 -107.5q38 94 129 150t234 56q215 0 322.5 -120t107.5 -342q0 -94 -12 -148 h-740q2 -111 28.5 -187t78.5 -120.5t123.5 -64t171.5 -19.5q135 0 266 39l29 -121q-90 -57 -324 -57q-150 0 -247 39.5t-162 113.5q-149 -153 -443 -153q-161 0 -248.5 77t-87.5 238zM258 305q0 -102 51.5 -146t169.5 -44q114 0 204 41.5t136 87.5q-47 108 -47 266l-266 -16 q-128 -8 -188 -50.5t-60 -138.5zM920 637h587q2 16 2 53q-4 301 -282 301q-145 0 -220 -87.5t-87 -266.5z" />
<glyph unicode="&#xe7;" horiz-adv-x="983" d="M123 539q0 273 136.5 423t391.5 150q148 0 221 -25l-20 -131q-103 21 -182 21q-385 0 -385 -432q0 -221 94.5 -317.5t286.5 -96.5q99 0 196 19l15 -130q-82 -28 -240 -28q-255 0 -384.5 138t-129.5 409zM418 -393q123 68 123 160q0 65 -45 129h151q39 -61 39 -134 q0 -76 -55.5 -141.5t-153.5 -101.5z" />
<glyph unicode="&#xe8;" horiz-adv-x="1140" d="M123 547q0 278 125.5 427.5t351.5 149.5q209 0 318.5 -121.5t109.5 -343.5q0 -93 -12 -147h-735q1 -110 27.5 -186t79 -120.5t124.5 -63.5t174 -19q151 0 266 39l29 -121q-95 -57 -326 -57q-277 0 -404.5 138t-127.5 425zM287 633h587q6 73 -5 134t-41 113t-89.5 81.5 t-144.5 29.5q-285 0 -307 -358zM319 1497l144 76l246 -273l-117 -26z" />
<glyph unicode="&#xe9;" horiz-adv-x="1140" d="M123 547q0 278 125.5 427.5t351.5 149.5q209 0 318.5 -121.5t109.5 -343.5q0 -93 -12 -147h-735q1 -110 27.5 -186t79 -120.5t124.5 -63.5t174 -19q151 0 266 39l29 -121q-95 -57 -326 -57q-277 0 -404.5 138t-127.5 425zM287 633h587q6 73 -5 134t-41 113t-89.5 81.5 t-144.5 29.5q-285 0 -307 -358zM487 1300l246 273l144 -76l-273 -223z" />
<glyph unicode="&#xea;" horiz-adv-x="1140" d="M123 547q0 278 125.5 427.5t351.5 149.5q209 0 318.5 -121.5t109.5 -343.5q0 -93 -12 -147h-735q1 -110 27.5 -186t79 -120.5t124.5 -63.5t174 -19q151 0 266 39l29 -121q-95 -57 -326 -57q-277 0 -404.5 138t-127.5 425zM260 1393l324 202l325 -202l-73 -74l-252 125 l-250 -125zM287 633h587q6 73 -5 134t-41 113t-89.5 81.5t-144.5 29.5q-285 0 -307 -358z" />
<glyph unicode="&#xeb;" horiz-adv-x="1140" d="M123 547q0 278 125.5 427.5t351.5 149.5q209 0 318.5 -121.5t109.5 -343.5q0 -93 -12 -147h-735q1 -110 27.5 -186t79 -120.5t124.5 -63.5t174 -19q151 0 266 39l29 -121q-95 -57 -326 -57q-277 0 -404.5 138t-127.5 425zM283 1323v211h147v-211h-147zM287 633h587 q6 73 -5 134t-41 113t-89.5 81.5t-144.5 29.5q-285 0 -307 -358zM741 1323v211h146v-211h-146z" />
<glyph unicode="&#xec;" horiz-adv-x="509" d="M-16 1497l143 76l246 -273l-117 -26zM176 0v1104h158v-1104h-158z" />
<glyph unicode="&#xed;" horiz-adv-x="509" d="M139 1300l246 273l143 -76l-272 -223zM176 0v1104h158v-1104h-158z" />
<glyph unicode="&#xee;" horiz-adv-x="509" d="M-70 1393l324 202l326 -202l-74 -74l-252 125l-250 -125zM176 0v1104h158v-1104h-158z" />
<glyph unicode="&#xef;" horiz-adv-x="509" d="M-47 1323v211h147v-211h-147zM176 0v1104h158v-1104h-158zM412 1323v211h145v-211h-145z" />
<glyph unicode="&#xf0;" horiz-adv-x="1222" d="M123 537q0 125 26 224.5t70 164.5t105 108t127.5 61.5t140.5 18.5q203 0 276 -125q-23 89 -96 186t-151 156l-191 -141l-51 72l166 122q-76 49 -189 105l56 106q153 -66 245 -131l181 133l53 -71l-160 -119q365 -310 365 -854q0 -286 -127 -429.5t-367 -143.5 q-246 0 -362.5 132.5t-116.5 424.5zM287 539q0 -225 75 -324.5t244 -99.5q171 0 249.5 105.5t78.5 326.5q0 239 -81 337.5t-239 98.5q-166 0 -246.5 -108.5t-80.5 -335.5z" />
<glyph unicode="&#xf1;" horiz-adv-x="1202" d="M172 0v1047q69 31 194 52t277 21q199 0 294 -68.5t95 -240.5v-811h-158v782q0 107 -52 153t-195 46q-178 0 -297 -35v-946h-158zM254 1325q-1 105 52.5 158t129.5 53q56 0 113 -24t107.5 -48t91.5 -24q75 0 75 100h115q-1 -105 -51 -158t-127 -53q-53 0 -111 23.5 t-111 47t-92 23.5q-36 0 -55.5 -26t-19.5 -72h-117z" />
<glyph unicode="&#xf2;" horiz-adv-x="1189" d="M125 545q0 579 475 579q235 0 350 -134t115 -431q0 -579 -477 -579q-233 0 -348 135t-115 430zM287 551q0 -231 73 -333.5t234 -102.5q159 0 234 105t75 335t-73 332t-234 102q-162 0 -235.5 -103.5t-73.5 -334.5zM322 1497l143 76l246 -273l-117 -26z" />
<glyph unicode="&#xf3;" horiz-adv-x="1189" d="M125 545q0 579 475 579q235 0 350 -134t115 -431q0 -579 -477 -579q-233 0 -348 135t-115 430zM287 551q0 -231 73 -333.5t234 -102.5q159 0 234 105t75 335t-73 332t-234 102q-162 0 -235.5 -103.5t-73.5 -334.5zM481 1300l246 273l143 -76l-272 -223z" />
<glyph unicode="&#xf4;" horiz-adv-x="1189" d="M125 545q0 579 475 579q235 0 350 -134t115 -431q0 -579 -477 -579q-233 0 -348 135t-115 430zM270 1393l324 202l326 -202l-74 -74l-252 125l-250 -125zM287 551q0 -231 73 -333.5t234 -102.5q159 0 234 105t75 335t-73 332t-234 102q-162 0 -235.5 -103.5t-73.5 -334.5 z" />
<glyph unicode="&#xf5;" horiz-adv-x="1189" d="M125 545q0 579 475 579q235 0 350 -134t115 -431q0 -579 -477 -579q-233 0 -348 135t-115 430zM254 1325q-1 105 52.5 158t129.5 53q56 0 113 -24t107.5 -48t91.5 -24q75 0 75 100h115q-1 -105 -51 -158t-127 -53q-53 0 -111 23.5t-111 47t-92 23.5q-36 0 -55.5 -26 t-19.5 -72h-117zM287 551q0 -231 73 -333.5t234 -102.5q159 0 234 105t75 335t-73 332t-234 102q-162 0 -235.5 -103.5t-73.5 -334.5z" />
<glyph unicode="&#xf6;" horiz-adv-x="1189" d="M125 545q0 579 475 579q235 0 350 -134t115 -431q0 -579 -477 -579q-233 0 -348 135t-115 430zM287 551q0 -231 73 -333.5t234 -102.5q159 0 234 105t75 335t-73 332t-234 102q-162 0 -235.5 -103.5t-73.5 -334.5zM291 1323v211h147v-211h-147zM750 1323v211h145v-211 h-145z" />
<glyph unicode="&#xf7;" horiz-adv-x="1300" d="M166 643v137h969v-137h-969zM575 238v213h154v-213h-154zM575 971v217h154v-217h-154z" />
<glyph unicode="&#xf8;" horiz-adv-x="1189" d="M125 545q0 579 475 579q162 0 266 -67l64 94l92 -59l-72 -105q115 -136 115 -428q0 -579 -477 -579q-158 0 -264 65l-60 -88l-90 59l66 99q-115 133 -115 430zM285 551q0 -202 45 -295l456 674q-68 59 -190 59q-162 0 -236.5 -104.5t-74.5 -333.5zM403 170 q66 -55 191 -55q160 0 235.5 105t75.5 335q0 189 -45 291z" />
<glyph unicode="&#xf9;" horiz-adv-x="1193" d="M168 340v764h158v-735q0 -70 8.5 -113t32.5 -75t68 -45t114 -13q172 0 315 84q-4 33 -4 172v725h158v-1104h-119q-18 55 -22 94q-133 -110 -365 -110q-98 0 -166.5 24.5t-106.5 73t-54.5 111t-16.5 147.5zM319 1497l144 76l246 -273l-117 -26z" />
<glyph unicode="&#xfa;" horiz-adv-x="1193" d="M168 340v764h158v-735q0 -70 8.5 -113t32.5 -75t68 -45t114 -13q172 0 315 84q-4 33 -4 172v725h158v-1104h-119q-18 55 -22 94q-133 -110 -365 -110q-98 0 -166.5 24.5t-106.5 73t-54.5 111t-16.5 147.5zM481 1300l246 273l143 -76l-272 -223z" />
<glyph unicode="&#xfb;" horiz-adv-x="1193" d="M168 340v764h158v-735q0 -70 8.5 -113t32.5 -75t68 -45t114 -13q172 0 315 84q-4 33 -4 172v725h158v-1104h-119q-18 55 -22 94q-133 -110 -365 -110q-98 0 -166.5 24.5t-106.5 73t-54.5 111t-16.5 147.5zM270 1393l324 202l326 -202l-74 -74l-252 125l-250 -125z" />
<glyph unicode="&#xfc;" horiz-adv-x="1193" d="M168 340v764h158v-735q0 -70 8.5 -113t32.5 -75t68 -45t114 -13q172 0 315 84q-4 33 -4 172v725h158v-1104h-119q-18 55 -22 94q-133 -110 -365 -110q-98 0 -166.5 24.5t-106.5 73t-54.5 111t-16.5 147.5zM293 1323v211h147v-211h-147zM752 1323v211h145v-211h-145z" />
<glyph unicode="&#xfd;" horiz-adv-x="1101" d="M43 -426q40 -14 111 -14q113 0 202 37.5t150.5 107t102 146.5t73.5 178l354 1075h-157l-224 -676q-75 -219 -100 -330q-11 54 -102 328l-230 678h-168l383 -1104h76q-50 -146 -139.5 -223.5t-233.5 -77.5q-37 0 -84 6zM438 1300l246 273l143 -76l-272 -223z" />
<glyph unicode="&#xfe;" horiz-adv-x="1181" d="M176 -438v1970l158 22v-454q95 20 205 20q250 0 386 -140t136 -392q0 -288 -139 -438t-400 -150q-35 0 -66 2.5t-46 4.5t-41.5 7t-34.5 6v-434zM334 162q100 -21 176 -21q387 0 387 443q0 198 -93.5 296.5t-275.5 98.5q-103 0 -194 -31v-786z" />
<glyph unicode="&#xff;" horiz-adv-x="1101" d="M43 -426q40 -14 111 -14q113 0 202 37.5t150.5 107t102 146.5t73.5 178l354 1075h-157l-224 -676q-88 -262 -100 -332q-8 49 -102 330l-230 678h-168l383 -1104h76q-50 -146 -139.5 -223.5t-233.5 -77.5q-37 0 -84 6zM252 1323v211h147v-211h-147zM711 1323v211h145v-211 h-145z" />
<glyph unicode="&#x152;" horiz-adv-x="2048" d="M137 709q0 365 143 555t433 190q168 0 270 -64t145 -171v215h768q1 1 -3.5 -35.5t-9.5 -73t-5 -35.5h-598v-477h565v-145h-565v-523h641v-145h-793v209q-119 -229 -415 -229q-291 0 -433.5 182t-142.5 547zM309 715q0 -301 98 -446.5t308 -145.5q204 0 301.5 147 t97.5 449q0 301 -96.5 446.5t-306.5 145.5q-211 0 -306.5 -145t-95.5 -451z" />
<glyph unicode="&#x153;" horiz-adv-x="1949" d="M125 545q0 297 123 438t368 141q164 0 261.5 -57t142.5 -172q101 229 391 229q214 0 321 -119.5t107 -342.5q0 -94 -12 -148h-742q1 -111 27.5 -187t80 -120.5t125.5 -64t173 -19.5q133 0 264 39l29 -121q-90 -57 -324 -57q-181 0 -289.5 57.5t-160.5 173.5 q-49 -118 -145 -176.5t-257 -58.5q-249 0 -366 134t-117 431zM289 551q0 -233 74.5 -333.5t250.5 -100.5q171 0 248.5 102.5t77.5 335.5q0 231 -76 332.5t-250 101.5q-177 0 -251 -102.5t-74 -335.5zM1090 637h593v55q0 64 -14 115.5t-45.5 94t-87.5 66t-133 23.5 q-289 0 -313 -354z" />
<glyph unicode="&#x178;" horiz-adv-x="1200" d="M31 1434h198l177 -324q185 -330 200 -371q9 25 197 369l174 326h182l-473 -846v-588h-166v588zM303 1573v211h148v-211h-148zM762 1573v211h145v-211h-145z" />
<glyph unicode="&#x2c6;" horiz-adv-x="1136" d="M246 1393l323 202l326 -202l-74 -74l-252 125l-250 -125z" />
<glyph unicode="&#x2dc;" horiz-adv-x="1136" d="M227 1325q-1 105 53 158t130 53q56 0 113 -24t107 -48t91 -24q76 0 76 100h114q-1 -105 -51 -158t-127 -53q-53 0 -111 23.5t-110.5 47t-91.5 23.5q-36 0 -56 -26t-20 -72h-117z" />
<glyph unicode="&#x2000;" horiz-adv-x="922" />
<glyph unicode="&#x2001;" horiz-adv-x="1845" />
<glyph unicode="&#x2002;" horiz-adv-x="922" />
<glyph unicode="&#x2003;" horiz-adv-x="1845" />
<glyph unicode="&#x2004;" horiz-adv-x="615" />
<glyph unicode="&#x2005;" horiz-adv-x="461" />
<glyph unicode="&#x2006;" horiz-adv-x="307" />
<glyph unicode="&#x2007;" horiz-adv-x="307" />
<glyph unicode="&#x2008;" horiz-adv-x="230" />
<glyph unicode="&#x2009;" horiz-adv-x="369" />
<glyph unicode="&#x200a;" horiz-adv-x="102" />
<glyph unicode="&#x2010;" horiz-adv-x="905" d="M164 512v137h577v-137h-577z" />
<glyph unicode="&#x2011;" horiz-adv-x="905" d="M164 512v137h577v-137h-577z" />
<glyph unicode="&#x2012;" horiz-adv-x="905" d="M164 512v137h577v-137h-577z" />
<glyph unicode="&#x2013;" horiz-adv-x="1339" d="M164 516v129h1012v-129h-1012z" />
<glyph unicode="&#x2014;" horiz-adv-x="2082" d="M164 516v129h1755v-129h-1755z" />
<glyph unicode="&#x2018;" horiz-adv-x="454" d="M147 1120v41q0 98 33.5 210.5t77.5 184.5h96q-61 -172 -61 -350q0 -25 4 -65z" />
<glyph unicode="&#x2019;" horiz-adv-x="450" d="M135 1120q62 170 62 348q0 28 -4 68l149 20v-43q0 -96 -33.5 -208.5t-77.5 -184.5h-96z" />
<glyph unicode="&#x201a;" horiz-adv-x="468" d="M100 -248q62 170 62 348q0 26 -4 66l149 20v-41q0 -98 -33 -210.5t-77 -182.5h-97z" />
<glyph unicode="&#x201c;" horiz-adv-x="753" d="M147 1120v41q0 98 33.5 210.5t77.5 184.5h96q-61 -172 -61 -350q0 -25 4 -65zM446 1161q0 98 33.5 210.5t77.5 184.5h98q-63 -165 -63 -350q0 -25 4 -65l-147 -21q-3 21 -3 41z" />
<glyph unicode="&#x201d;" horiz-adv-x="751" d="M135 1120q62 170 62 348q0 28 -4 68l149 20v-43q0 -96 -33.5 -208.5t-77.5 -184.5h-96zM434 1120q62 170 62 348q0 28 -4 68l149 20q2 -14 2 -43q0 -96 -34 -208t-79 -185h-96z" />
<glyph unicode="&#x201e;" horiz-adv-x="768" d="M100 -248q62 170 62 348q0 26 -4 66l149 20v-41q0 -98 -33 -210.5t-77 -182.5h-97zM399 -248q62 170 62 348q0 26 -4 66l149 20q2 -12 2 -41q0 -97 -33.5 -209t-76.5 -184h-99z" />
<glyph unicode="&#x2022;" horiz-adv-x="905" d="M178 727q0 116 78 195t195 79q115 0 194.5 -79.5t79.5 -194.5q0 -117 -79 -196.5t-193 -79.5q-118 0 -196.5 79.5t-78.5 196.5z" />
<glyph unicode="&#x2026;" horiz-adv-x="1718" d="M164 0v274h164v-274h-164zM778 0v274h164v-274h-164zM1391 0v274h163v-274h-163z" />
<glyph unicode="&#x202f;" horiz-adv-x="369" />
<glyph unicode="&#x2039;" horiz-adv-x="698" d="M125 563l266 383h168l-272 -383l272 -383h-168z" />
<glyph unicode="&#x203a;" horiz-adv-x="698" d="M139 946h170l266 -383l-266 -383h-168l271 383z" />
<glyph unicode="&#x205f;" horiz-adv-x="461" />
<glyph unicode="&#x20ac;" horiz-adv-x="1259" d="M115 512v111h164q-3 38 -3 75q0 20 5 113h-166v111h182q51 257 218 387.5t407 130.5q145 0 223 -29l-25 -137q-71 16 -182 16q-180 0 -305 -90t-170 -278h463l-21 -111h-461q-4 -70 -4 -109q0 -54 2 -79h426l-20 -111h-391q78 -369 475 -369q100 0 186 17l21 -137 q-76 -29 -226 -29q-122 0 -223.5 29.5t-184 90.5t-137.5 162t-77 236h-176z" />
<glyph unicode="&#x2122;" horiz-adv-x="1443" d="M143 1352v78h443l-8 -78h-166v-512h-99v512h-170zM664 840v590h137l168 -418l161 418h138v-590h-94v280q0 47 10 217l-166 -415h-103l-167 415q8 -152 8 -211v-286h-92z" />
<glyph unicode="&#x25fc;" horiz-adv-x="1105" d="M0 0v1106h1106v-1106h-1106z" />
</font>
</defs>
</svg>
