<?xml version="1.0" standalone="no"?>
<!DOCTYPE svg PUBLIC "-//W3C//DTD SVG 1.1//EN" "http://www.w3.org/Graphics/SVG/1.1/DTD/svg11.dtd" >
<svg xmlns="http://www.w3.org/2000/svg">
<metadata></metadata>
<defs>
<font id="engrezsemibold" horiz-adv-x="1417" >
<font-face units-per-em="2048" ascent="1536" descent="-512" />
<missing-glyph horiz-adv-x="430" />
<glyph unicode="&#xfb01;" horiz-adv-x="1284" d="M53 907v168l191 35v102q0 168 120 260.5t349 92.5q261 0 377 -45l-29 -199q-157 35 -311 35q-79 0 -130 -11t-78 -34t-36.5 -51.5t-9.5 -71.5v-76h641v-1112h-252v907h-389v-907h-252v907h-191z" />
<glyph unicode="&#xfb02;" horiz-adv-x="1292" d="M53 907v168l191 35v94q0 76 24 137t65.5 102.5t100.5 69t127 40t146 12.5q115 0 286 -35l146 35v-1565h-252v1343q-79 15 -164 15q-118 0 -172.5 -34.5t-54.5 -117.5v-94h223v-205h-223v-907h-252v907h-191z" />
<glyph unicode="&#xfb03;" horiz-adv-x="1927" d="M53 907v168l191 35v102q0 168 120 260.5t349 92.5q226 0 370 -47q109 47 271 47q255 0 379 -45l-31 -197q-138 35 -311 35q-79 0 -130 -10.5t-78 -33.5t-36.5 -51.5t-9.5 -72.5v-78h641v-1112h-252v907h-389v-907h-252v907h-389v-907h-252v907h-191zM496 1112h389v100 q0 78 24 136q-72 10 -159 10q-79 0 -130 -10.5t-78 -33.5t-36.5 -51.5t-9.5 -72.5v-78z" />
<glyph unicode="&#xfb04;" horiz-adv-x="1933" d="M53 907v168l191 35v102q0 168 120 260.5t349 92.5q232 0 370 -47q108 47 265 47q115 0 286 -35l146 35v-1565h-252v1343q-79 15 -164 15q-118 0 -172.5 -34.5t-54.5 -117.5v-94h223v-205h-223v-907h-252v907h-389v-907h-252v907h-191zM496 1112h389v92q0 85 26 144 q-72 10 -161 10q-79 0 -130 -10.5t-78 -33.5t-36.5 -51.5t-9.5 -72.5v-78z" />
<glyph horiz-adv-x="0" />
<glyph horiz-adv-x="0" />
<glyph horiz-adv-x="682" />
<glyph unicode="&#xd;" horiz-adv-x="0" />
<glyph unicode=" "  horiz-adv-x="430" />
<glyph unicode="&#x09;" horiz-adv-x="430" />
<glyph unicode="&#xa0;" horiz-adv-x="430" />
<glyph unicode="!" horiz-adv-x="573" d="M158 0v291h258v-291h-258zM160 1231v219h252v-219q0 -537 -41 -770h-168q-43 258 -43 770z" />
<glyph unicode="&#x22;" horiz-adv-x="843" d="M127 1419v121h213v-121q0 -232 -25 -393h-163q-25 141 -25 393zM504 1419v121h215v-121q0 -232 -25 -393h-164q-26 130 -26 393z" />
<glyph unicode="#" horiz-adv-x="1431" d="M80 365l33 190h213l55 313h-215l35 189h213l63 360h213l-63 -360h303l63 360h213l-63 -360h209l-33 -189h-209l-55 -313h209l-33 -190h-211l-64 -365h-213l64 365h-303l-64 -365h-213l64 365h-211zM539 555h303l55 313h-303z" />
<glyph unicode="$" horiz-adv-x="1103" d="M102 1012q0 356 373 393v219h230v-219q142 -5 241 -37l-28 -215q-132 35 -318 35q-134 0 -187 -38t-53 -126q0 -68 38.5 -103t156.5 -77l160 -60q175 -64 240 -138t65 -220q0 -176 -82 -273t-260 -128v-234h-227v221h-15q-207 0 -325 54l24 208q182 -43 359 -43 q146 0 207 42t61 141q0 60 -40.5 94t-156.5 76l-147 53q-125 45 -195 100.5t-95.5 119t-25.5 155.5z" />
<glyph unicode="%" horiz-adv-x="1755" d="M84 1044q0 191 86 290.5t242 99.5t240.5 -99t84.5 -291q0 -198 -84 -295.5t-241 -97.5q-158 0 -243 98t-85 295zM285 1040q0 -117 30.5 -170t94.5 -53q69 0 99 52t30 171t-30 173.5t-99 54.5q-65 0 -95 -55t-30 -173zM346 0l860 1417h213l-862 -1417h-211zM1018 375 q0 191 86 290t242 99t240.5 -98.5t84.5 -290.5q0 -198 -83.5 -295.5t-241.5 -97.5q-157 0 -242.5 98t-85.5 295zM1219 373q0 -118 30 -172t94 -54q69 0 100.5 54t31.5 172t-31.5 171.5t-100.5 53.5q-65 0 -94.5 -53.5t-29.5 -171.5z" />
<glyph unicode="&#x26;" horiz-adv-x="1548" d="M76 367q0 77 25.5 141t74 112.5t107.5 85t137 68.5q-95 84 -136.5 159.5t-41.5 166.5q0 148 112.5 247t311.5 99q195 0 301 -100.5t106 -241.5q0 -128 -78 -224.5t-219 -160.5l303 -293q84 134 84 328h211q2 -18 2 -68q-1 -113 -40.5 -222.5t-100.5 -189.5l287 -274h-324 l-119 121q-82 -67 -201 -106.5t-260 -39.5q-145 0 -254.5 35t-170 93.5t-89 124.5t-28.5 139zM332 387q0 -89 76.5 -147t228.5 -58q168 0 295 86l-369 359q-125 -54 -178 -107t-53 -133zM481 1100q0 -64 34.5 -115.5t115.5 -124.5q106 45 159.5 101t53.5 137q0 73 -47.5 116 t-132.5 43q-88 0 -135.5 -44.5t-47.5 -112.5z" />
<glyph unicode="'" horiz-adv-x="466" d="M127 1419v121h213v-121q0 -232 -25 -393h-163q-25 141 -25 393z" />
<glyph unicode="(" horiz-adv-x="643" d="M94 604q0 160 24.5 315.5t58.5 267t79 214.5t77 158t62 98l193 -98q-48 -78 -89 -166.5t-83.5 -209.5t-67 -271t-24.5 -308q0 -157 24.5 -307t67 -271t83.5 -209.5t89 -166.5l-193 -96q-30 44 -61 98t-77 158t-80 214.5t-58.5 265.5t-24.5 314z" />
<glyph unicode=")" horiz-adv-x="643" d="M55 -350q48 78 89 166.5t83.5 209.5t67 271t24.5 307q0 158 -24.5 308t-67 271t-83.5 209.5t-89 166.5l193 98q30 -43 62 -98t77 -158t79 -214.5t58.5 -267t24.5 -315.5q0 -159 -24.5 -314t-58.5 -265.5t-80 -214.5t-77 -158t-61 -98z" />
<glyph unicode="*" horiz-adv-x="962" d="M88 1079l59 183l89 -29q124 -43 182 -94q-33 79 -33 204v91h193v-91q0 -122 -35 -206q66 55 184 96l88 29l59 -183l-88 -28q-114 -38 -204 -31q79 -52 147 -146l53 -73l-153 -113l-56 74q-75 102 -92 184q-22 -88 -92 -184l-55 -74l-154 111l53 75q68 96 146 144 q-82 -7 -203 33z" />
<glyph unicode="+" horiz-adv-x="1163" d="M92 602v215h377v385h223v-385h379v-215h-379v-383h-223v383h-377z" />
<glyph unicode="," horiz-adv-x="532" d="M14 -291q60 108 95.5 244t35.5 266v57l256 25q2 -4 2 -35q0 -133 -66.5 -298t-146.5 -259h-176z" />
<glyph unicode="-" horiz-adv-x="915" d="M139 475v211h639v-211h-639z" />
<glyph unicode="." horiz-adv-x="536" d="M139 0v297h258v-297h-258z" />
<glyph unicode="/" horiz-adv-x="854" d="M68 -145l495 1638h223l-495 -1638h-223z" />
<glyph unicode="0" horiz-adv-x="1222" d="M119 707q0 375 131.5 553t370.5 178q160 0 265 -70t162.5 -233t57.5 -424q0 -190 -36.5 -332t-105 -228.5t-160 -128.5t-206.5 -42q-121 0 -208.5 39t-149 124.5t-91.5 225.5t-30 338zM377 709q0 -148 15.5 -249.5t46.5 -159.5t72 -82.5t99 -24.5q55 0 96 24.5t73.5 81 t49.5 158.5t17 248q0 149 -16.5 252t-49 160.5t-73.5 82.5t-97 25q-55 0 -96 -25t-73 -82.5t-48 -159.5t-16 -249z" />
<glyph unicode="1" horiz-adv-x="815" d="M55 1290l461 127h125v-1417h-252v1171l-319 -79z" />
<glyph unicode="2" horiz-adv-x="1075" d="M80 201q341 365 471.5 542t130.5 291q0 91 -52.5 135.5t-164.5 44.5q-156 0 -307 -36l-25 206q148 52 352 52q97 0 176.5 -21t142 -64.5t97.5 -116.5t35 -171q0 -43 -9.5 -89t-22.5 -85.5t-40.5 -88t-48 -83t-61.5 -86.5t-64.5 -81.5t-74.5 -84t-74 -79t-79 -82 t-75 -77.5h596l-29 -227h-858z" />
<glyph unicode="3" horiz-adv-x="1048" d="M90 23l27 204q130 -20 239 -20q162 0 242 47.5t80 169.5q0 91 -55 135.5t-179 44.5h-153v219h98q132 0 189 50t57 157q0 96 -57.5 139t-171.5 43q-135 0 -263 -28l-24 209q127 43 334 43q213 0 325.5 -97.5t112.5 -287.5q0 -141 -52.5 -217t-131.5 -101q46 -9 84.5 -28.5 t73 -53t54 -88t19.5 -125.5q0 -106 -29 -187t-77 -131t-119.5 -81t-148 -43t-169.5 -12q-192 0 -305 39z" />
<glyph unicode="4" horiz-adv-x="1187" d="M61 504l506 913h359v-911h194l-24 -207h-170v-299h-248v299h-596zM281 506h397v297l4 430z" />
<glyph unicode="5" horiz-adv-x="1085" d="M123 23l37 213q132 -31 254 -31q155 0 235 65t80 176q0 211 -266 211q-95 0 -238 -41l-96 66l37 735h786l-30 -223h-533l-12 -340q66 16 160 16q209 0 328.5 -109t119.5 -312q0 -215 -143 -341t-393 -126q-211 0 -326 41z" />
<glyph unicode="6" horiz-adv-x="1136" d="M115 584q0 109 12.5 206t40 194t77 174.5t118.5 138t170 93.5t225 33q159 0 217 -28l-31 -205q-83 12 -172 12q-327 0 -375 -340q123 39 217 39q426 0 426 -446q0 -230 -123.5 -352.5t-332.5 -122.5q-469 0 -469 604zM371 557q0 -178 50.5 -271t168.5 -93q92 0 142 56 t50 189q0 141 -48 196.5t-156 55.5q-54 0 -112 -12.5t-91 -30.5q-4 -58 -4 -90z" />
<glyph unicode="7" horiz-adv-x="1013" d="M70 1190v227h886v-194l-497 -1223h-271l498 1190h-616z" />
<glyph unicode="8" horiz-adv-x="1198" d="M115 389q0 74 22.5 135t59.5 99.5t75.5 62t79.5 35.5q-88 25 -148.5 103.5t-60.5 213.5q0 181 118.5 290.5t344.5 109.5q223 0 337 -106t114 -292q0 -126 -61 -208.5t-144 -108.5q231 -63 231 -330q0 -197 -122.5 -305t-364.5 -108q-481 0 -481 409zM373 387 q0 -99 56.5 -154t172.5 -55q223 0 223 215q0 217 -221 217q-114 0 -172.5 -56.5t-58.5 -166.5zM399 1030q0 -97 54 -153t149 -56q100 0 149.5 55t49.5 156q0 205 -205 205q-197 0 -197 -207z" />
<glyph unicode="9" horiz-adv-x="1130" d="M94 973q0 213 125 338t328 125q126 0 217 -44t146 -130.5t80.5 -204.5t25.5 -275q0 -139 -16.5 -250t-60 -214t-113.5 -171.5t-182.5 -109.5t-262.5 -41q-151 0 -217 35l31 196q80 -14 192 -14q151 0 248 80t113 258q-105 -41 -220 -41q-216 0 -325 125t-109 338z M350 977q0 -258 221 -258q86 0 189 35q4 40 4 80q0 397 -211 397q-91 0 -147 -61.5t-56 -192.5z" />
<glyph unicode=":" horiz-adv-x="536" d="M139 0v297h258v-297h-258zM139 815v297h258v-297h-258z" />
<glyph unicode=";" horiz-adv-x="581" d="M37 -291q63 117 98 252t35 260q0 50 -4 58l258 26q2 -6 2 -37q0 -135 -65 -296.5t-148 -262.5h-176zM176 815v297h258v-297h-258z" />
<glyph unicode="&#x3c;" horiz-adv-x="1218" d="M84 602v213l991 438v-252q-160 -63 -329.5 -132.5t-265.5 -109t-128 -50.5q10 -4 113 -47.5t271.5 -112t338.5 -133.5v-252z" />
<glyph unicode="=" horiz-adv-x="1282" d="M145 371v207h994v-207h-994zM145 840v207h994v-207h-994z" />
<glyph unicode="&#x3e;" horiz-adv-x="1216" d="M141 164v250q166 65 339 136t269.5 112t114.5 47q-33 11 -128.5 50.5t-265.5 109t-329 132.5v252l992 -438v-213z" />
<glyph unicode="?" horiz-adv-x="917" d="M74 1413q134 47 313 47q210 0 330.5 -98t120.5 -266q0 -86 -30.5 -160t-85 -130.5t-110 -96t-125.5 -76.5l-16 -172h-195l-18 278q163 79 239 163t76 183q0 74 -58.5 113t-160.5 39q-138 0 -241 -35zM248 0v291h258v-291h-258z" />
<glyph unicode="@" horiz-adv-x="2050" d="M102 365q0 246 64.5 442.5t190.5 336.5t320 215t445 75q409 0 627.5 -196t218.5 -548q0 -330 -136 -508t-359 -178q-76 0 -134.5 28.5t-87.5 73.5q-107 -102 -262 -102q-205 0 -301 102t-96 310q0 145 39 255t109.5 177.5t164.5 101t209 33.5q150 0 240 -22.5t127 -49.5 l-66 -686q20 -20 64 -20t81.5 13.5t73.5 48t61 89.5t40.5 144t15.5 205q0 275 -164.5 402.5t-478.5 127.5q-380 0 -579 -223.5t-199 -638.5q0 -301 163.5 -452.5t473.5 -151.5q126 0 214 10.5t224 46.5l39 -186q-152 -76 -500 -76q-398 0 -620 215.5t-222 585.5zM829 434 q0 -133 38.5 -182t152.5 -49q48 0 103 17t81 40l51 512q-68 10 -141 10q-144 0 -213.5 -86t-71.5 -262z" />
<glyph unicode="A" horiz-adv-x="1316" d="M25 0l473 1434h321l471 -1434h-266l-121 379h-497l-121 -379h-260zM471 586h367l-64 202q-96 301 -121 406q-32 -131 -118 -408z" />
<glyph unicode="B" horiz-adv-x="1271" d="M172 8v1419q137 19 434 19q96 0 172.5 -13t139.5 -42.5t105.5 -75t65.5 -112.5t23 -154q0 -121 -55 -196t-137 -103q123 -26 189.5 -105.5t66.5 -228.5q0 -215 -137.5 -321.5t-426.5 -106.5q-177 0 -265.5 3.5t-174.5 16.5zM428 203q59 -8 197 -8q151 0 222 55t71 166 q0 112 -64.5 159.5t-212.5 47.5h-213v-420zM428 823h186q240 0 240 215q0 201 -233 201q-138 0 -193 -6v-410z" />
<glyph unicode="C" horiz-adv-x="1165" d="M109 690q0 185 50.5 330t140.5 235.5t209.5 137.5t262.5 47q216 0 303 -41l-39 -213q-111 24 -225 24q-207 0 -322.5 -123t-115.5 -389q0 -475 426 -475q129 0 237 27l37 -211q-83 -45 -311 -45q-146 0 -263.5 40.5t-205.5 123.5t-136 218t-48 314z" />
<glyph unicode="D" horiz-adv-x="1374" d="M172 6v1419q101 13 172 17t207 4q159 0 278.5 -29.5t202.5 -85.5t134.5 -144t74.5 -198.5t23 -255.5q0 -745 -707 -745q-147 0 -214.5 3t-170.5 15zM430 209q57 -6 150 -6q222 0 320.5 118t98.5 398q0 191 -46.5 304t-137 160.5t-240.5 47.5q-86 0 -145 -6v-1016z" />
<glyph unicode="E" horiz-adv-x="1128" d="M174 0v1434h834l-27 -217h-549v-379h520v-217h-520v-404h586v-217h-844z" />
<glyph unicode="F" horiz-adv-x="1083" d="M174 0v1434h842l-29 -217h-555v-426h506v-218h-506v-573h-258z" />
<glyph unicode="G" horiz-adv-x="1320" d="M109 698q0 150 36 274t100 211t154.5 146.5t199 88t232.5 28.5q218 0 316 -39l-29 -215q-132 25 -270 25q-475 0 -475 -515q0 -495 413 -495q89 0 160 22v519h252v-668q-142 -92 -432 -92q-328 0 -492.5 183.5t-164.5 526.5z" />
<glyph unicode="H" horiz-adv-x="1423" d="M174 0v1434h260v-600h557v600h258v-1434h-258v616h-557v-616h-260z" />
<glyph unicode="I" horiz-adv-x="606" d="M174 0v1434h260v-1434h-260z" />
<glyph unicode="J" horiz-adv-x="872" d="M53 14l25 205q68 -12 188 -12q96 0 139.5 41t43.5 125v1061h258v-1053q0 -190 -104 -290.5t-314 -100.5q-184 0 -236 24z" />
<glyph unicode="K" horiz-adv-x="1294" d="M174 0v1434h260v-629l115 22l391 607h297l-471 -713l502 -721h-316l-401 582l-117 26v-608h-260z" />
<glyph unicode="L" horiz-adv-x="1042" d="M174 0v1434h260v-1217h570l-29 -217h-801z" />
<glyph unicode="M" horiz-adv-x="1820" d="M174 0v1434h385l352 -1006l361 1006h375v-1434h-246v709q0 303 6 475q0 -1 -5 -16.5t-12.5 -40t-18 -57.5t-24 -74.5t-29 -86t-34.5 -97t-39 -103.5l-215 -557h-252l-215 561q-57 147 -103 285.5t-52 179.5q10 -223 10 -478v-700h-244z" />
<glyph unicode="N" horiz-adv-x="1486" d="M174 0v1434h322l344 -615q172 -309 250 -491q-21 207 -21 585v521h244v-1434h-295l-346 625q-208 375 -266 510q12 -143 12 -613v-522h-244z" />
<glyph unicode="O" d="M111 705q0 363 150 556t448 193q596 0 596 -727q0 -363 -149.5 -555t-446.5 -192q-598 0 -598 725zM375 713q0 -263 81 -389.5t255 -126.5q170 0 248.5 127.5t78.5 396.5q0 264 -79.5 391t-251.5 127q-175 0 -253.5 -127t-78.5 -399z" />
<glyph unicode="P" horiz-adv-x="1179" d="M174 0v1425q162 25 371 25q281 0 422 -109t141 -354q0 -237 -133 -363t-391 -126q-80 0 -156 6v-504h-254zM428 717q82 -6 143 -6q138 0 206.5 64t68.5 204q0 137 -65.5 197.5t-209.5 60.5q-90 0 -143 -6v-514z" />
<glyph unicode="Q" d="M111 705q0 363 150 556t448 193q596 0 596 -727q0 -517 -297 -680q204 -107 475 -174q-50 -35 -144 -78.5t-157 -56.5q-100 39 -215 107.5t-203 136.5q-9 0 -27.5 -1t-27.5 -1q-598 0 -598 725zM375 713q0 -263 81 -389.5t255 -126.5q170 0 248.5 127.5t78.5 396.5 q0 264 -79.5 391t-251.5 127q-175 0 -253.5 -127t-78.5 -399z" />
<glyph unicode="R" horiz-adv-x="1269" d="M174 0v1427q136 19 420 19q530 0 530 -442q0 -332 -247 -412l346 -592h-301l-293 532h-199v-532h-256zM430 752h170q145 0 204.5 61.5t59.5 194.5q0 122 -63 178.5t-201 56.5q-127 0 -170 -6v-485z" />
<glyph unicode="S" horiz-adv-x="1112" d="M106 1032q0 200 125 307t340 107q256 0 377 -41l-37 -215q-119 33 -305 33q-127 0 -184 -45.5t-57 -135.5q0 -73 39 -116.5t151 -81.5l135 -47q96 -34 156 -66t102.5 -76.5t60 -101.5t17.5 -139q0 -213 -130.5 -319.5t-397.5 -106.5q-255 0 -383 53l32 215 q180 -45 353 -45q145 0 205.5 45t60.5 147q0 65 -41 102t-156 75l-147 51q-179 60 -247.5 151t-68.5 250z" />
<glyph unicode="T" horiz-adv-x="1103" d="M66 1217v217h989l-29 -217h-344v-1217h-258v1217h-358z" />
<glyph unicode="U" horiz-adv-x="1396" d="M162 510v924h260v-926q0 -147 62.5 -225t217.5 -78q79 0 133.5 21.5t84.5 64t42.5 95.5t12.5 126v922h260v-922q0 -116 -32.5 -211.5t-97.5 -166.5t-169.5 -110.5t-241.5 -39.5q-275 0 -403.5 137t-128.5 389z" />
<glyph unicode="V" horiz-adv-x="1294" d="M20 1434h285l232 -740q109 -360 118 -454q14 121 119 456l236 738h264l-477 -1434h-299z" />
<glyph unicode="W" horiz-adv-x="2015" d="M55 1434h264l158 -691q82 -370 103 -561q22 210 104 563l160 689h344l155 -689q82 -372 103 -577q34 255 106 575l160 691h244l-334 -1434h-352l-160 694q-72 299 -96 547q-18 -187 -101 -549l-161 -692h-357z" />
<glyph unicode="X" horiz-adv-x="1308" d="M25 0l473 745l-430 689h303l291 -488l294 488h291l-438 -689l471 -745h-311l-324 549l-328 -549h-292z" />
<glyph unicode="Y" horiz-adv-x="1253" d="M8 1434h301l158 -297q134 -246 168 -338q22 59 162 336l151 299h285l-473 -871v-563h-260v563z" />
<glyph unicode="Z" horiz-adv-x="1140" d="M84 197l631 1020h-592v217h872l19 -203l-627 -1012h680l-31 -219h-936z" />
<glyph unicode="[" horiz-adv-x="684" d="M158 -412v2036h448v-192h-215v-1653h215v-191h-448z" />
<glyph unicode="\" horiz-adv-x="854" d="M68 1493h223l495 -1638h-223z" />
<glyph unicode="]" horiz-adv-x="684" d="M76 -221h217v1653h-217v192h450v-2036h-450v191z" />
<glyph unicode="^" horiz-adv-x="1089" d="M76 575l342 859h246l344 -859h-191l-276 725l-277 -725h-188z" />
<glyph unicode="_" horiz-adv-x="1044" d="M20 -170h1004v-188h-1004v188z" />
<glyph unicode="`" horiz-adv-x="1105" d="M301 1513l205 101l258 -305l-156 -43z" />
<glyph unicode="a" horiz-adv-x="1101" d="M76 305q0 157 104.5 241.5t308.5 90.5l226 8v105q0 82 -45.5 119.5t-155.5 37.5q-163 0 -328 -33l-22 203q132 47 373 47q98 0 172.5 -17t132.5 -56.5t88.5 -110t30.5 -170.5v-770h-185q-28 63 -37 102q-53 -62 -129 -89t-204 -27q-155 0 -242.5 78.5t-87.5 240.5z M319 315q0 -77 39 -109t134 -32q139 0 231 82q-2 25 -2 102v111l-191 -6q-117 -3 -164 -39t-47 -109z" />
<glyph unicode="b" horiz-adv-x="1193" d="M145 39v1489l250 28v-450q90 20 195 20q253 0 380.5 -131.5t127.5 -402.5q0 -289 -147.5 -448.5t-413.5 -159.5q-225 0 -392 55zM395 217q66 -14 146 -14q299 0 299 370q0 181 -71.5 258.5t-231.5 77.5q-76 0 -142 -16v-676z" />
<glyph unicode="c" horiz-adv-x="964" d="M96 537q0 277 142 430t409 153q155 0 225 -26l-28 -203q-82 16 -166 16q-157 0 -242.5 -80.5t-85.5 -271.5q0 -183 79 -264.5t241 -81.5q92 0 190 20l14 -206q-88 -31 -245 -31q-261 0 -397 139.5t-136 405.5z" />
<glyph unicode="d" horiz-adv-x="1206" d="M96 526q0 287 133.5 443.5t395.5 156.5q60 0 180 -16v418l252 28v-1556h-187q-5 12 -10.5 27.5t-12.5 35.5t-11 31q-106 -110 -279 -110q-227 0 -344 138t-117 404zM356 543q0 -183 64 -263.5t198 -80.5q112 0 193 51q-6 82 -6 194v449q-72 14 -160 14 q-152 0 -220.5 -90.5t-68.5 -273.5z" />
<glyph unicode="e" horiz-adv-x="1138" d="M96 549q0 278 133 431t369 153q223 0 337 -127.5t114 -352.5q0 -98 -17 -176h-680q7 -155 88 -217.5t254 -62.5q141 0 281 36l33 -188q-107 -61 -359 -61q-290 0 -421.5 140t-131.5 425zM358 659h447q1 19 1 36q0 37 -6 69q-8 47 -30.5 86t-66.5 60.5t-107 21.5 q-110 0 -169.5 -71t-68.5 -202z" />
<glyph unicode="f" horiz-adv-x="782" d="M53 907v170l191 35v107q0 92 28.5 161t80 109.5t117.5 60t146 19.5q98 0 166 -15l-22 -202q-44 6 -103 6q-84 0 -122.5 -33t-38.5 -106v-107h235v-205h-235v-907h-252v907h-191z" />
<glyph unicode="g" horiz-adv-x="1187" d="M98 539q0 291 153 440t415 149q242 0 376 -67v-1055q0 -96 -26.5 -172t-73 -126.5t-113.5 -83.5t-144 -47.5t-169 -14.5q-224 0 -344 43l23 202q147 -32 319 -32q150 0 214.5 51.5t64.5 163.5v61q-97 -33 -220 -33q-475 0 -475 521zM356 565q0 -181 64 -258.5t217 -77.5 q65 0 158 29v637q-49 16 -152 16q-138 0 -212.5 -87.5t-74.5 -258.5z" />
<glyph unicode="h" horiz-adv-x="1202" d="M150 0v1528l253 28v-460q135 32 263 32q76 0 133 -8t108.5 -30t84 -58t51 -93.5t18.5 -135.5v-803h-254v756q0 80 -40.5 115.5t-150.5 35.5q-98 0 -213 -22v-885h-253z" />
<glyph unicode="i" horiz-adv-x="550" d="M150 0v1112h251v-1112h-251zM152 1276v266l247 31v-297h-247z" />
<glyph unicode="j" horiz-adv-x="550" d="M-96 -422l18 211q46 -8 80 -8q76 0 112 29.5t36 97.5v1204h251v-1206q0 -346 -354 -346q-87 0 -143 18zM152 1276v266l247 31v-297h-247z" />
<glyph unicode="k" horiz-adv-x="1116" d="M150 0v1528l253 28v-899l95 27l280 428h281l-361 -539l381 -573h-288l-302 465l-86 20v-485h-253z" />
<glyph unicode="l" horiz-adv-x="559" d="M154 0v1528l252 28v-1556h-252z" />
<glyph unicode="m" horiz-adv-x="1804" d="M145 0v1044q80 41 209.5 62.5t268.5 21.5q209 0 303 -63q132 63 329 63q79 0 137.5 -8t111 -29.5t86 -57.5t52.5 -93.5t19 -136.5v-803h-254v764q0 75 -36.5 111t-131.5 36q-119 0 -217 -26q8 -33 8 -82v-803h-252v764q0 75 -37.5 111t-132.5 36q-126 0 -209 -18v-893 h-254z" />
<glyph unicode="n" horiz-adv-x="1202" d="M145 0v1044q80 40 212.5 62t281.5 22q101 0 172.5 -13.5t130 -48t88 -100t29.5 -163.5v-803h-254v760q0 82 -39.5 116.5t-151.5 34.5q-120 0 -215 -20v-891h-254z" />
<glyph unicode="o" horiz-adv-x="1204" d="M98 547q0 295 130.5 440.5t379.5 145.5q253 0 375.5 -135.5t122.5 -432.5q0 -295 -131 -440t-381 -145q-253 0 -374.5 135t-121.5 432zM354 553q0 -195 59 -279t189 -84q129 0 187.5 84.5t58.5 284.5q0 198 -58.5 282.5t-185.5 84.5q-132 0 -191 -85.5t-59 -287.5z" />
<glyph unicode="p" horiz-adv-x="1196" d="M145 -436v1493q166 71 412 71q265 0 405 -138.5t140 -399.5q0 -285 -142 -437.5t-409 -152.5q-66 0 -156 12v-418zM395 225q51 -10 119 -10q169 0 248.5 89.5t79.5 281.5q0 171 -76.5 247t-222.5 76q-76 0 -148 -16v-668z" />
<glyph unicode="q" horiz-adv-x="1200" d="M98 535q0 280 146 436.5t407 156.5q266 0 404 -65v-1469l-248 -30v465q-85 -29 -197 -29q-512 0 -512 535zM356 555q0 -183 71.5 -259.5t229.5 -76.5q74 0 150 23v651q-66 16 -148 16q-303 0 -303 -354z" />
<glyph unicode="r" horiz-adv-x="831" d="M147 0v1112h199q9 -15 20.5 -59.5t14.5 -79.5q83 72 163.5 112.5t178.5 40.5q41 0 53 -2v-256q-70 4 -98 4q-130 0 -277 -57v-815h-254z" />
<glyph unicode="s" horiz-adv-x="962" d="M100 799q0 162 104.5 241.5t299.5 79.5q216 0 319 -39l-26 -192q-157 29 -289 29q-94 0 -133 -29.5t-39 -83.5t28 -78.5t130 -56.5l135 -43q141 -43 196.5 -108t55.5 -187q0 -176 -108.5 -259t-323.5 -83q-240 0 -347 47l25 196q152 -38 322 -38q111 0 155.5 31t44.5 87 q0 49 -27 72t-126 53l-138 39q-144 44 -201 116.5t-57 205.5z" />
<glyph unicode="t" horiz-adv-x="827" d="M49 907v170l172 31v238l248 30v-264h281v-205h-281v-549q0 -90 32.5 -120.5t108.5 -30.5q105 0 144 10l14 -201q-69 -26 -199 -26q-354 0 -354 340v577h-166z" />
<glyph unicode="u" horiz-adv-x="1196" d="M141 348v764h254v-727q0 -103 34 -144.5t138 -41.5q143 0 232 59q-4 82 -4 174v680h252v-1112h-195q-20 50 -31 90q-118 -106 -321 -106q-191 0 -275 95t-84 269z" />
<glyph unicode="v" horiz-adv-x="1122" d="M31 1112h272l158 -487q31 -96 62 -219.5t40 -194.5q22 125 109 414l157 487h261l-388 -1112h-284z" />
<glyph unicode="w" horiz-adv-x="1681" d="M51 1112h252l123 -506q51 -194 72 -383q21 181 77 387l144 502h262l139 -502q60 -203 82 -385q17 159 72 385l123 502h233l-282 -1112h-283l-125 465q-81 297 -90 444q-39 -244 -96 -444l-133 -465h-285z" />
<glyph unicode="x" horiz-adv-x="1091" d="M39 0l354 573l-336 539h295l201 -369l213 369h270l-342 -547l361 -565h-289l-227 397l-228 -397h-272z" />
<glyph unicode="y" horiz-adv-x="1122" d="M25 1112h268l180 -549q76 -229 96 -360q24 133 95 364l170 545h245l-350 -1114q-31 -97 -73 -171.5t-103 -137t-148.5 -96t-195.5 -33.5q-45 0 -93.5 6.5t-68.5 15.5l27 197q62 -10 108 -10q239 0 303 231h-75z" />
<glyph unicode="z" horiz-adv-x="987" d="M74 170l504 739h-465v203h743l23 -172l-498 -737h530l-39 -203h-770z" />
<glyph unicode="{" horiz-adv-x="698" d="M70 510v207q99 10 132.5 68.5t33.5 181.5q0 7 -11.5 161t-11.5 162q0 169 85.5 263t256.5 94q41 0 61 -5l-2 -190q-2 0 -22 -2t-21 -2q-75 -7 -105 -45.5t-30 -110.5q0 -56 12.5 -185.5t12.5 -141.5q0 -303 -187 -353q54 -14 92 -46.5t58 -81.5t28.5 -103t8.5 -123 q0 -17 -12.5 -142.5t-12.5 -185.5q0 -72 30 -109.5t105 -43.5l11 -1q11 -2 21 -3t11 0l2 -193q-46 -4 -61 -4q-170 0 -256 94t-86 262q0 8 11.5 164t11.5 162q0 124 -33.5 183t-132.5 69z" />
<glyph unicode="|" horiz-adv-x="512" d="M158 -369v1950h196v-1950h-196z" />
<glyph unicode="}" horiz-adv-x="698" d="M84 -227q1 -1 11 0t21 3l11 1q75 6 105 43.5t30 109.5q0 60 -12 185.5t-12 142.5q0 69 8.5 123t28 103t57.5 81.5t92 46.5q-186 49 -186 353q0 12 12 141.5t12 185.5q0 72 -30 110.5t-105 45.5q-1 0 -21.5 2t-21.5 2v190q18 5 59 5q171 0 256.5 -94t85.5 -263 q0 -8 -11 -162t-11 -161q0 -123 33.5 -181.5t132.5 -68.5v-207q-99 -10 -132.5 -69t-33.5 -183q0 -6 11 -162t11 -164q0 -168 -86 -262t-256 -94q-19 0 -59 4v193z" />
<glyph unicode="~" horiz-adv-x="1310" d="M113 580q28 140 110.5 217t216.5 77q89 0 240 -69q125 -57 197 -57q56 0 90 29t55 100l180 -37q-29 -142 -109.5 -218.5t-213.5 -76.5q-88 0 -242 67q-44 20 -68.5 30.5t-59.5 20t-63 9.5q-57 0 -90.5 -29.5t-58.5 -101.5z" />
<glyph unicode="&#xa1;" horiz-adv-x="561" d="M150 -18q0 429 40 669h181q41 -249 41 -669v-308h-262v308zM152 821v291h258v-291h-258z" />
<glyph unicode="&#xa2;" horiz-adv-x="1003" d="M98 690q0 226 100.5 371.5t288.5 189.5v207h230v-184q106 -2 174 -27l-27 -200q-94 12 -176 12q-76 0 -134.5 -17.5t-105 -56.5t-71.5 -108.5t-25 -167.5q0 -183 80 -263.5t244 -80.5q100 0 196 14l19 -199q-57 -26 -174 -33v-182h-230v197q-389 68 -389 528z" />
<glyph unicode="&#xa3;" horiz-adv-x="1130" d="M104 631v194h158l10 187q23 422 451 422q189 0 293 -45l-35 -195q-119 25 -242 25q-115 0 -162.5 -56.5t-52.5 -175.5l-8 -162h387l-20 -194h-379l-8 -107q-8 -127 -29 -200t-70 -115h629v-209h-876l-44 166q61 38 93.5 99t38.5 169l14 197h-148z" />
<glyph unicode="&#xa4;" horiz-adv-x="1224" d="M113 313l120 121q-67 111 -67 238t67 235l-120 121l143 141l119 -120q96 61 237 61q140 0 236 -57l121 116l143 -141l-119 -121q68 -121 68 -235q0 -116 -70 -238l121 -121l-143 -143l-121 119q-101 -58 -236 -58q-137 0 -237 60l-119 -121zM371 672q0 -106 65 -175 t176 -69q114 0 178 68t64 176q0 107 -65 175t-177 68q-110 0 -175.5 -68.5t-65.5 -174.5z" />
<glyph unicode="&#xa5;" horiz-adv-x="1368" d="M72 1430h301l325 -629l312 629h284l-325 -599h213v-178h-310l-49 -94v-31h359v-176h-359v-352h-260v352h-368v176h368v31l-55 94h-313v178h213z" />
<glyph unicode="&#xa6;" horiz-adv-x="538" d="M164 -223v663h211v-663h-211zM164 770v664h211v-664h-211z" />
<glyph unicode="&#xa7;" horiz-adv-x="1071" d="M82 934q0 113 45 217.5t124 185t196.5 128.5t254.5 48q76 0 138 -12l-21 -145q-44 10 -114 10q-127 0 -205 -52t-78 -149q0 -55 31.5 -110.5t82 -104.5t111.5 -101t121.5 -110.5t111 -122t82 -145.5t31.5 -172q0 -111 -42.5 -212.5t-120 -179.5t-195.5 -124.5t-260 -46.5 q-105 0 -185 22l31 156q77 -23 158 -23q125 0 197.5 50.5t72.5 146.5q0 44 -19.5 86.5t-52 79t-75 73.5t-89.5 75t-94.5 78.5t-90 89t-75 101.5t-52 120.5t-19.5 142.5zM231 938q0 -74 33 -142t84.5 -121t113.5 -105t122 -104t108 -106t73.5 -122t16.5 -142h11q51 86 51 205 q0 75 -32 143t-83 121t-112 104.5t-120.5 102.5t-107.5 105t-74.5 123t-19.5 145h-10q-54 -80 -54 -207z" />
<glyph unicode="&#xa8;" horiz-adv-x="1097" d="M217 1325v236h213v-236h-213zM666 1325v236h215v-236h-215z" />
<glyph unicode="&#xa9;" horiz-adv-x="1679" d="M106 711q0 163 57 302.5t156 235t235 149.5t292 54q212 0 377 -88.5t258.5 -255t93.5 -387.5q0 -220 -95.5 -390.5t-263 -262t-378.5 -91.5q-209 0 -375 90t-261.5 258t-95.5 386zM279 717q0 -261 156 -417.5t411 -156.5t406 154t151 418q0 262 -154 416.5t-409 154.5 q-254 0 -407.5 -154t-153.5 -415zM502 705q0 188 103.5 298.5t285.5 110.5q105 0 153 -20l-18 -138q-80 13 -115 13q-105 0 -172 -61.5t-67 -188.5q0 -123 61 -187.5t172 -64.5q43 0 131 10l15 -133q-50 -27 -168 -27q-179 0 -280 104t-101 284z" />
<glyph unicode="&#xaa;" horiz-adv-x="825" d="M133 948q0 95 63 141t197 54l109 4v55q0 49 -24.5 68.5t-94.5 19.5q-98 0 -180 -16l-17 123q70 28 207 28q133 0 203 -46.5t70 -161.5v-453h-125q-23 52 -25 61q-55 -69 -188 -69q-92 0 -143.5 47.5t-51.5 144.5zM154 549v131h512v-131h-512zM291 956q0 -41 22 -58 t70 -17q35 0 70 12.5t53 30.5v112l-94 -2q-64 -3 -92.5 -21.5t-28.5 -56.5z" />
<glyph unicode="&#xab;" horiz-adv-x="1218" d="M98 565l273 389h268l-289 -389q35 -45 142 -192.5t147 -198.5h-268zM563 565l277 389h266l-289 -389q35 -45 142 -192.5t147 -198.5h-266z" />
<glyph unicode="&#xac;" horiz-adv-x="1308" d="M123 799v188h1036v-577h-194v389h-842z" />
<glyph unicode="&#xad;" horiz-adv-x="915" d="M139 475v211h639v-211h-639z" />
<glyph unicode="&#xae;" horiz-adv-x="1067" d="M102 1014q0 200 123.5 319t309.5 119q184 0 307 -119.5t123 -318.5q0 -197 -122.5 -316.5t-310.5 -119.5q-185 0 -307.5 118.5t-122.5 317.5zM205 1014q0 -158 93.5 -249t233.5 -91q141 0 234.5 90.5t93.5 249.5q0 160 -94 250t-231 90q-140 0 -235 -90t-95 -250z M389 788v463q54 11 141 11q84 0 128 -39t44 -113q0 -59 -23 -90.5t-56 -40.5l112 -191h-112l-95 173h-41v-173h-98zM487 1044h48q71 0 71 66q0 34 -16.5 50t-52.5 16q-34 0 -50 -2v-130z" />
<glyph unicode="&#xaf;" horiz-adv-x="1105" d="M254 1368v164h598v-164h-598z" />
<glyph unicode="&#xb0;" horiz-adv-x="864" d="M100 1149q0 147 93 235.5t245 88.5q151 0 239.5 -87t88.5 -235q0 -146 -92.5 -234t-245.5 -88q-150 0 -239 86.5t-89 233.5zM281 1151q0 -72 41 -116t112 -44q69 0 108.5 43.5t39.5 114.5q0 72 -40.5 115t-111.5 43q-69 0 -109 -42.5t-40 -113.5z" />
<glyph unicode="&#xb1;" horiz-adv-x="1236" d="M119 0v211h993v-211h-993zM131 635v209h381v358h217v-358h381v-209h-381v-338h-217v338h-381z" />
<glyph unicode="&#xb2;" horiz-adv-x="755" d="M92 999q336 279 336 404q0 49 -31 75.5t-88 26.5q-77 0 -164 -20l-22 127q87 33 221 33q121 0 189.5 -58t68.5 -164q0 -98 -77.5 -196.5t-205.5 -204.5h324l-22 -148h-508z" />
<glyph unicode="&#xb3;" horiz-adv-x="690" d="M98 891l21 125q97 -19 149 -19q74 0 112 27.5t38 77.5q0 49 -25.5 71.5t-89.5 22.5h-82v129h47q131 0 131 94q0 46 -27.5 69t-90.5 23q-76 0 -150 -18l-22 121q76 31 202 31q121 0 183.5 -52t62.5 -151q0 -133 -117 -170q144 -25 144 -170q0 -240 -297 -240 q-110 0 -189 29z" />
<glyph unicode="&#xb4;" horiz-adv-x="1105" d="M311 1309l260 305l205 -101l-307 -247z" />
<glyph unicode="&#xb5;" horiz-adv-x="1230" d="M158 -436v1548h254v-747q0 -86 38 -126t130 -40q131 0 233 51q-4 90 -4 186v676h252v-838q0 -64 19.5 -87.5t66.5 -26.5v-160q-40 -14 -82 -14q-159 0 -213 108q-54 -54 -124.5 -83t-141.5 -29q-107 0 -174 51v-439z" />
<glyph unicode="&#xb6;" horiz-adv-x="1181" d="M74 1008q0 227 133 332.5t397 105.5q277 0 400 -29v-1700h-185v1553q-10 2 -129 2v-1555h-192v908h-31q-393 0 -393 383z" />
<glyph unicode="&#xb7;" horiz-adv-x="534" d="M139 582v329h258v-329h-258z" />
<glyph unicode="&#xb8;" horiz-adv-x="720" d="M152 -375q73 32 105 68t32 82q0 49 -33 121h209q39 -67 39 -142q0 -97 -70 -166t-192 -106z" />
<glyph unicode="&#xb9;" horiz-adv-x="520" d="M23 1532l264 90h92v-748h-164v574l-184 -51z" />
<glyph unicode="&#xba;" horiz-adv-x="854" d="M135 1081q0 346 295 346q144 0 214.5 -79.5t70.5 -257.5q0 -349 -291 -349q-146 0 -217.5 81t-71.5 259zM176 549v131h512v-131h-512zM303 1083q0 -118 30.5 -163.5t98.5 -45.5q60 0 88.5 47t28.5 164q0 120 -28.5 164.5t-92.5 44.5q-66 0 -95.5 -46t-29.5 -165z" />
<glyph unicode="&#xbb;" horiz-adv-x="1218" d="M115 174l286 391l-286 389h266l274 -389l-274 -391h-266zM582 174l288 391l-288 389h266l274 -389l-274 -391h-266z" />
<glyph unicode="&#xbc;" horiz-adv-x="1531" d="M72 1329l264 90h92v-747h-164v573l-184 -51zM258 0l803 1417h166l-807 -1417h-162zM844 279l284 471h218v-467h108l-16 -129h-92v-152h-160v152h-328zM981 283h211v350z" />
<glyph unicode="&#xbd;" horiz-adv-x="1548" d="M72 1329l264 90h92v-747h-164v573l-184 -51zM258 0l803 1417h166l-807 -1417h-162zM913 127q336 279 336 403q0 49 -31 76t-88 27q-71 0 -163 -21l-23 127q87 33 221 33q121 0 189.5 -57.5t68.5 -163.5q0 -98 -77.5 -197t-204.5 -204h323l-22 -148h-508z" />
<glyph unicode="&#xbe;" horiz-adv-x="1597" d="M96 674l21 125q97 -19 149 -19q74 0 112 27.5t38 77.5q0 49 -25.5 71.5t-89.5 22.5h-82v129h47q131 0 131 94q0 46 -27.5 69t-90.5 23q-77 0 -150 -18l-23 121q73 30 203 30q121 0 183.5 -51.5t62.5 -150.5q0 -133 -117 -170q144 -25 144 -170q0 -240 -297 -240 q-110 0 -189 29zM328 0l802 1417h166l-807 -1417h-161zM911 279l285 471h217v-467h109l-17 -129h-92v-152h-160v152h-327zM1049 283h211v350z" />
<glyph unicode="&#xbf;" horiz-adv-x="911" d="M35 14q0 -168 120 -266t330 -98q180 0 314 47l-39 211q-102 -35 -242 -35q-102 0 -160.5 39t-58.5 113q0 99 76 183t239 163l-18 278h-195l-16 -172q-55 -29 -100 -58.5t-93.5 -72.5t-81 -90t-54 -110t-21.5 -132zM367 819v291h258v-291h-258z" />
<glyph unicode="&#xc0;" horiz-adv-x="1316" d="M25 0l473 1434h321l471 -1434h-266l-121 379h-497l-121 -379h-260zM319 1767l205 101l258 -305l-155 -43zM471 586h367l-64 202q-96 301 -121 406q-32 -131 -118 -408z" />
<glyph unicode="&#xc1;" horiz-adv-x="1316" d="M25 0l473 1434h321l471 -1434h-266l-121 379h-497l-121 -379h-260zM471 586h367l-64 202q-96 301 -121 406q-32 -131 -118 -408zM541 1556l260 306l205 -101l-308 -248z" />
<glyph unicode="&#xc2;" horiz-adv-x="1316" d="M25 0l473 1434h321l471 -1434h-266l-121 379h-497l-121 -379h-260zM315 1655l340 215l340 -215l-98 -105l-242 117l-241 -117zM471 586h367l-64 202q-96 301 -121 406q-32 -131 -118 -408z" />
<glyph unicode="&#xc3;" horiz-adv-x="1316" d="M25 0l473 1434h321l471 -1434h-266l-121 379h-497l-121 -379h-260zM307 1581q-1 64 16 112t46.5 75t64 40t72.5 13q62 0 149.5 -37t130.5 -37q35 0 49.5 20.5t14.5 61.5h158q0 -129 -56.5 -185.5t-140.5 -56.5q-62 0 -155 36t-126 36q-64 0 -61 -78h-162zM471 586h367 l-64 202q-96 301 -121 406q-32 -131 -118 -408z" />
<glyph unicode="&#xc4;" horiz-adv-x="1316" d="M25 0l473 1434h321l471 -1434h-266l-121 379h-497l-121 -379h-260zM326 1579v236h213v-236h-213zM471 586h367l-64 202q-96 301 -121 406q-32 -131 -118 -408zM774 1579v236h215v-236h-215z" />
<glyph unicode="&#xc5;" horiz-adv-x="1316" d="M25 0l473 1434h51q-55 24 -86 74t-31 118q0 98 63 158.5t162 60.5q101 0 163.5 -60t62.5 -159q0 -67 -31.5 -118t-85.5 -74h53l471 -1434h-266l-121 379h-497l-121 -379h-260zM471 586h367l-64 202q-96 301 -121 406q-32 -131 -118 -408zM563 1624q0 -43 26 -71.5 t68 -28.5t68.5 28.5t26.5 71.5t-26.5 70.5t-68.5 27.5t-68 -27.5t-26 -70.5z" />
<glyph unicode="&#xc6;" horiz-adv-x="1976" d="M-14 0l876 1434h996l-27 -217h-555v-379h516v-217h-516v-404h592v-217h-842v416h-496l-247 -416h-297zM657 629h369v612z" />
<glyph unicode="&#xc7;" horiz-adv-x="1165" d="M109 690q0 185 50.5 330t140.5 235.5t209.5 137.5t262.5 47q216 0 303 -41l-39 -213q-111 24 -225 24q-207 0 -322.5 -123t-115.5 -389q0 -475 426 -475q129 0 237 27l37 -211q-83 -45 -311 -45q-146 0 -263.5 40.5t-205.5 123.5t-136 218t-48 314zM481 -375 q73 32 105 68t32 82q0 52 -32 121h209q39 -67 39 -142q0 -96 -70.5 -165.5t-192.5 -106.5z" />
<glyph unicode="&#xc8;" horiz-adv-x="1128" d="M174 0v1434h834l-27 -217h-549v-379h520v-217h-520v-404h586v-217h-844zM272 1767l205 101l258 -305l-155 -43z" />
<glyph unicode="&#xc9;" horiz-adv-x="1128" d="M174 0v1434h834l-27 -217h-549v-379h520v-217h-520v-404h586v-217h-844zM453 1563l260 305l205 -101l-308 -247z" />
<glyph unicode="&#xca;" horiz-adv-x="1128" d="M174 0v1434h834l-27 -217h-549v-379h520v-217h-520v-404h586v-217h-844zM250 1655l340 215l340 -215l-99 -105l-241 117l-242 -117z" />
<glyph unicode="&#xcb;" horiz-adv-x="1128" d="M174 0v1434h834l-27 -217h-549v-379h520v-217h-520v-404h586v-217h-844zM256 1579v236h213v-236h-213zM705 1579v236h215v-236h-215z" />
<glyph unicode="&#xcc;" horiz-adv-x="606" d="M-4 1767l205 101l258 -305l-156 -43zM174 0v1434h260v-1434h-260z" />
<glyph unicode="&#xcd;" horiz-adv-x="606" d="M145 1563l261 305l204 -101l-307 -247zM174 0v1434h260v-1434h-260z" />
<glyph unicode="&#xce;" horiz-adv-x="606" d="M-35 1655l340 215l340 -215l-98 -105l-242 117l-242 -117zM174 0v1434h260v-1434h-260z" />
<glyph unicode="&#xcf;" horiz-adv-x="606" d="M-25 1579v236h213v-236h-213zM174 0v1434h260v-1434h-260zM424 1579v236h215v-236h-215z" />
<glyph unicode="&#xd0;" horiz-adv-x="1402" d="M37 614v197h162v616q189 19 379 19q160 0 279.5 -29.5t202 -85.5t134 -144t74 -198.5t22.5 -255.5q0 -370 -172.5 -557.5t-533.5 -187.5q-201 0 -385 18v608h-162zM463 215q57 -6 145 -6q219 0 315.5 116.5t96.5 393.5q0 280 -97.5 393t-318.5 113q-84 0 -141 -4v-410 h254l-29 -197h-225v-399z" />
<glyph unicode="&#xd1;" horiz-adv-x="1486" d="M174 0v1434h322l344 -615q172 -309 250 -491q-21 207 -21 585v521h244v-1434h-295l-346 625q-208 375 -266 510q12 -143 12 -613v-522h-244zM393 1581q-1 64 16 112t46.5 75t64 40t72.5 13q62 0 149.5 -37t130.5 -37q35 0 49.5 20.5t14.5 61.5h158q0 -129 -56.5 -185.5 t-140.5 -56.5q-62 0 -155 36t-126 36q-64 0 -61 -78h-162z" />
<glyph unicode="&#xd2;" d="M111 705q0 363 150 556t448 193q596 0 596 -727q0 -363 -149.5 -555t-446.5 -192q-598 0 -598 725zM375 713q0 -263 81 -389.5t255 -126.5q170 0 248.5 127.5t78.5 396.5q0 264 -79.5 391t-251.5 127q-175 0 -253.5 -127t-78.5 -399zM399 1767l205 101l258 -305l-155 -43 z" />
<glyph unicode="&#xd3;" d="M111 705q0 363 150 556t448 193q596 0 596 -727q0 -363 -149.5 -555t-446.5 -192q-598 0 -598 725zM375 713q0 -263 81 -389.5t255 -126.5q170 0 248.5 127.5t78.5 396.5q0 264 -79.5 391t-251.5 127q-175 0 -253.5 -127t-78.5 -399zM551 1563l260 305l205 -101 l-307 -247z" />
<glyph unicode="&#xd4;" d="M111 705q0 363 150 556t448 193q596 0 596 -727q0 -363 -149.5 -555t-446.5 -192q-598 0 -598 725zM367 1655l340 215l340 -215l-99 -105l-241 117l-242 -117zM375 713q0 -263 81 -389.5t255 -126.5q170 0 248.5 127.5t78.5 396.5q0 264 -79.5 391t-251.5 127 q-175 0 -253.5 -127t-78.5 -399z" />
<glyph unicode="&#xd5;" d="M111 705q0 363 150 556t448 193q596 0 596 -727q0 -363 -149.5 -555t-446.5 -192q-598 0 -598 725zM358 1581q-1 64 16 112t46.5 75t64 40t72.5 13q62 0 150 -37t131 -37q35 0 49 20.5t14 61.5h158q0 -129 -56.5 -185.5t-140.5 -56.5q-62 0 -154.5 36t-125.5 36 q-65 0 -62 -78h-162zM375 713q0 -263 81 -389.5t255 -126.5q170 0 248.5 127.5t78.5 396.5q0 264 -79.5 391t-251.5 127q-175 0 -253.5 -127t-78.5 -399z" />
<glyph unicode="&#xd6;" d="M111 705q0 363 150 556t448 193q596 0 596 -727q0 -363 -149.5 -555t-446.5 -192q-598 0 -598 725zM375 713q0 -263 81 -389.5t255 -126.5q170 0 248.5 127.5t78.5 396.5q0 264 -79.5 391t-251.5 127q-175 0 -253.5 -127t-78.5 -399zM375 1579v236h213v-236h-213z M823 1579v236h215v-236h-215z" />
<glyph unicode="&#xd7;" horiz-adv-x="1130" d="M111 406l309 303l-309 307l153 151l301 -307l303 307l154 -153l-309 -305l309 -306l-154 -151l-301 307l-303 -307z" />
<glyph unicode="&#xd8;" d="M111 705q0 363 150 556t448 193q177 0 303 -72l82 136l157 -88l-96 -158q150 -182 150 -545t-149.5 -555t-446.5 -192q-180 0 -299 67l-78 -131l-158 90l90 150q-153 182 -153 549zM371 713q0 -223 37 -316l489 791q-72 57 -190 57q-176 0 -256 -127.5t-80 -404.5z M526 242q66 -54 183 -54q172 0 253.5 129t81.5 404q0 245 -32 307z" />
<glyph unicode="&#xd9;" horiz-adv-x="1396" d="M162 510v924h260v-926q0 -147 62.5 -225t217.5 -78q79 0 133.5 21.5t84.5 64t42.5 95.5t12.5 126v922h260v-922q0 -116 -32.5 -211.5t-97.5 -166.5t-169.5 -110.5t-241.5 -39.5q-275 0 -403.5 137t-128.5 389zM389 1767l205 101l258 -305l-156 -43z" />
<glyph unicode="&#xda;" horiz-adv-x="1396" d="M162 510v924h260v-926q0 -147 62.5 -225t217.5 -78q79 0 133.5 21.5t84.5 64t42.5 95.5t12.5 126v922h260v-922q0 -116 -32.5 -211.5t-97.5 -166.5t-169.5 -110.5t-241.5 -39.5q-275 0 -403.5 137t-128.5 389zM547 1563l260 305l205 -101l-307 -247z" />
<glyph unicode="&#xdb;" horiz-adv-x="1396" d="M162 510v924h260v-926q0 -147 62.5 -225t217.5 -78q79 0 133.5 21.5t84.5 64t42.5 95.5t12.5 126v922h260v-922q0 -116 -32.5 -211.5t-97.5 -166.5t-169.5 -110.5t-241.5 -39.5q-275 0 -403.5 137t-128.5 389zM356 1655l340 215l340 -215l-98 -105l-242 117l-241 -117z " />
<glyph unicode="&#xdc;" horiz-adv-x="1396" d="M162 510v924h260v-926q0 -147 62.5 -225t217.5 -78q79 0 133.5 21.5t84.5 64t42.5 95.5t12.5 126v922h260v-922q0 -116 -32.5 -211.5t-97.5 -166.5t-169.5 -110.5t-241.5 -39.5q-275 0 -403.5 137t-128.5 389zM367 1579v236h213v-236h-213zM815 1579v236h215v-236h-215z " />
<glyph unicode="&#xdd;" horiz-adv-x="1253" d="M8 1434h301l158 -297q134 -246 168 -338q22 59 162 336l151 299h285l-473 -871v-563h-260v563zM477 1563l260 305l205 -101l-307 -247z" />
<glyph unicode="&#xde;" horiz-adv-x="1159" d="M174 0v1434h250v-246q82 4 125 4q274 0 396 -105.5t122 -338.5q0 -229 -127 -350.5t-377 -121.5q-24 0 -139 9v-285h-250zM424 502q59 -4 139 -4q121 0 177.5 55t56.5 186q0 125 -56.5 180.5t-191.5 55.5q-57 0 -125 -8v-465z" />
<glyph unicode="&#xdf;" horiz-adv-x="1269" d="M150 -436v1519q0 488 489 488q197 0 299 -93t102 -247q0 -71 -28 -137t-61 -106.5t-61 -85t-28 -77.5q0 -30 25 -61t63 -56.5t82 -60.5t82 -71.5t63 -92t25 -118.5q0 -174 -106.5 -274.5t-325.5 -100.5q-171 0 -250 35l31 190q95 -20 207 -20q110 0 156.5 39t46.5 120 q0 35 -19.5 65.5t-50.5 55t-69 48.5t-75.5 50.5t-68.5 57t-50.5 72.5t-19.5 92q0 45 19.5 89t47 81t54.5 74t46.5 82.5t19.5 92.5q0 71 -44 109.5t-133 38.5q-111 0 -168 -62t-57 -208v-1500z" />
<glyph unicode="&#xe0;" horiz-adv-x="1101" d="M76 305q0 157 104.5 241.5t308.5 90.5l226 8v105q0 82 -45.5 119.5t-155.5 37.5q-163 0 -328 -33l-22 203q132 47 373 47q98 0 172.5 -17t132.5 -56.5t88.5 -110t30.5 -170.5v-770h-185q-28 63 -37 102q-53 -62 -129 -89t-204 -27q-155 0 -242.5 78.5t-87.5 240.5z M195 1513l204 101l258 -305l-155 -43zM319 315q0 -77 39 -109t134 -32q139 0 231 82q-2 25 -2 102v111l-191 -6q-117 -3 -164 -39t-47 -109z" />
<glyph unicode="&#xe1;" horiz-adv-x="1101" d="M76 305q0 157 104.5 241.5t308.5 90.5l226 8v105q0 82 -45.5 119.5t-155.5 37.5q-163 0 -328 -33l-22 203q132 47 373 47q98 0 172.5 -17t132.5 -56.5t88.5 -110t30.5 -170.5v-770h-185q-28 63 -37 102q-53 -62 -129 -89t-204 -27q-155 0 -242.5 78.5t-87.5 240.5z M319 315q0 -77 39 -109t134 -32q139 0 231 82q-2 25 -2 102v111l-191 -6q-117 -3 -164 -39t-47 -109zM420 1309l260 305l205 -101l-307 -247z" />
<glyph unicode="&#xe2;" horiz-adv-x="1101" d="M76 305q0 157 104.5 241.5t308.5 90.5l226 8v105q0 82 -45.5 119.5t-155.5 37.5q-163 0 -328 -33l-22 203q132 47 373 47q98 0 172.5 -17t132.5 -56.5t88.5 -110t30.5 -170.5v-770h-185q-28 63 -37 102q-53 -62 -129 -89t-204 -27q-155 0 -242.5 78.5t-87.5 240.5z M211 1401l340 215l340 -215l-98 -105l-242 117l-242 -117zM319 315q0 -77 39 -109t134 -32q139 0 231 82q-2 25 -2 102v111l-191 -6q-117 -3 -164 -39t-47 -109z" />
<glyph unicode="&#xe3;" horiz-adv-x="1101" d="M76 305q0 157 104.5 241.5t308.5 90.5l226 8v105q0 82 -45.5 119.5t-155.5 37.5q-163 0 -328 -33l-22 203q132 47 373 47q98 0 172.5 -17t132.5 -56.5t88.5 -110t30.5 -170.5v-770h-185q-28 63 -37 102q-53 -62 -129 -89t-204 -27q-155 0 -242.5 78.5t-87.5 240.5z M203 1327q-1 64 15.5 112t46 75t64 40t72.5 13q62 0 150 -37t131 -37q35 0 49 20.5t14 61.5h158q0 -129 -56 -185.5t-140 -56.5q-62 0 -155 36t-126 36q-64 0 -61 -78h-162zM319 315q0 -77 39 -109t134 -32q139 0 231 82q-2 25 -2 102v111l-191 -6q-117 -3 -164 -39 t-47 -109z" />
<glyph unicode="&#xe4;" horiz-adv-x="1101" d="M76 305q0 157 104.5 241.5t308.5 90.5l226 8v105q0 82 -45.5 119.5t-155.5 37.5q-163 0 -328 -33l-22 203q132 47 373 47q98 0 172.5 -17t132.5 -56.5t88.5 -110t30.5 -170.5v-770h-185q-28 63 -37 102q-53 -62 -129 -89t-204 -27q-155 0 -242.5 78.5t-87.5 240.5z M221 1325v236h213v-236h-213zM319 315q0 -77 39 -109t134 -32q139 0 231 82q-2 25 -2 102v111l-191 -6q-117 -3 -164 -39t-47 -109zM670 1325v236h215v-236h-215z" />
<glyph unicode="&#xe5;" horiz-adv-x="1101" d="M76 305q0 157 104.5 241.5t308.5 90.5l226 8v105q0 82 -45.5 119.5t-155.5 37.5q-163 0 -328 -33l-22 203q132 47 373 47q98 0 172.5 -17t132.5 -56.5t88.5 -110t30.5 -170.5v-770h-185q-28 63 -37 102q-53 -62 -129 -89t-204 -27q-155 0 -242.5 78.5t-87.5 240.5z M319 315q0 -77 39 -109t134 -32q139 0 231 82q-2 25 -2 102v111l-191 -6q-117 -3 -164 -39t-47 -109zM328 1454q0 99 62.5 159t162.5 60t162.5 -59.5t62.5 -159.5q0 -97 -63 -157t-162 -60t-162 60t-63 157zM459 1454q0 -43 26.5 -71.5t67.5 -28.5q40 0 66 28.5t26 71.5 t-26 70.5t-66 27.5q-42 0 -68 -27.5t-26 -70.5z" />
<glyph unicode="&#xe6;" horiz-adv-x="1744" d="M72 307q0 167 114.5 242.5t348.5 89.5l182 14v86q0 48 -8.5 78.5t-31.5 53.5t-65.5 33.5t-109.5 10.5q-162 0 -305 -26l-33 184q94 51 354 51q83 0 143 -10t99.5 -31.5t64 -46.5t45.5 -63q46 73 122.5 116.5t213.5 43.5q121 0 210 -35.5t140.5 -101t76 -150t24.5 -191.5 q0 -111 -15 -172h-688q12 -161 88 -223.5t246 -62.5q138 0 277 34l34 -186q-98 -61 -354 -61q-154 0 -244 36t-157 105q-35 -39 -79 -67t-138 -51t-221 -23q-155 0 -244.5 80t-89.5 243zM322 324q0 -74 37.5 -107t127.5 -33t164 27.5t105 62.5q-29 81 -29 201l-184 -12 q-121 -8 -171 -37.5t-50 -101.5zM958 668h445q3 22 0 47q-3 105 -49 160t-158 55q-107 0 -166 -62.5t-72 -199.5z" />
<glyph unicode="&#xe7;" horiz-adv-x="964" d="M96 537q0 277 142 430t409 153q155 0 225 -26l-28 -203q-82 16 -166 16q-157 0 -242.5 -80.5t-85.5 -271.5q0 -183 79 -264.5t241 -81.5q92 0 190 20l14 -206q-88 -31 -245 -31q-261 0 -397 139.5t-136 405.5zM354 -375q73 32 105.5 68t32.5 82q0 49 -33 121h209 q39 -67 39 -142q0 -96 -70.5 -165.5t-192.5 -106.5z" />
<glyph unicode="&#xe8;" horiz-adv-x="1138" d="M96 549q0 278 133 431t369 153q223 0 337 -127.5t114 -352.5q0 -98 -17 -176h-680q7 -155 88 -217.5t254 -62.5q141 0 281 36l33 -188q-107 -61 -359 -61q-290 0 -421.5 140t-131.5 425zM289 1513l205 101l258 -305l-156 -43zM358 659h447q4 58 -4.5 105t-31 86 t-66.5 60.5t-107 21.5q-110 0 -169.5 -71t-68.5 -202z" />
<glyph unicode="&#xe9;" horiz-adv-x="1138" d="M96 549q0 278 133 431t369 153q223 0 337 -127.5t114 -352.5q0 -98 -17 -176h-680q7 -155 88 -217.5t254 -62.5q141 0 281 36l33 -188q-107 -61 -359 -61q-290 0 -421.5 140t-131.5 425zM358 659h447q4 58 -4.5 105t-31 86t-66.5 60.5t-107 21.5q-110 0 -169.5 -71 t-68.5 -202zM453 1309l260 305l205 -101l-308 -247z" />
<glyph unicode="&#xea;" horiz-adv-x="1138" d="M96 549q0 278 133 431t369 153q223 0 337 -127.5t114 -352.5q0 -98 -17 -176h-680q7 -155 88 -217.5t254 -62.5q141 0 281 36l33 -188q-107 -61 -359 -61q-290 0 -421.5 140t-131.5 425zM254 1401l340 215l340 -215l-98 -105l-242 117l-242 -117zM358 659h447 q4 58 -4.5 105t-31 86t-66.5 60.5t-107 21.5q-110 0 -169.5 -71t-68.5 -202z" />
<glyph unicode="&#xeb;" horiz-adv-x="1138" d="M96 549q0 278 133 431t369 153q223 0 337 -127.5t114 -352.5q0 -98 -17 -176h-680q7 -155 88 -217.5t254 -62.5q141 0 281 36l33 -188q-107 -61 -359 -61q-290 0 -421.5 140t-131.5 425zM262 1325v236h213v-236h-213zM358 659h447q4 58 -4.5 105t-31 86t-66.5 60.5 t-107 21.5q-110 0 -169.5 -71t-68.5 -202zM711 1325v236h215v-236h-215z" />
<glyph unicode="&#xec;" horiz-adv-x="550" d="M-31 1513l205 101l258 -305l-156 -43zM150 0v1112h251v-1112h-251z" />
<glyph unicode="&#xed;" horiz-adv-x="550" d="M121 1309l260 305l205 -101l-307 -247zM150 0v1112h251v-1112h-251z" />
<glyph unicode="&#xee;" horiz-adv-x="550" d="M-63 1401l339 215l340 -215l-98 -105l-242 117l-241 -117zM150 0v1112h251v-1112h-251z" />
<glyph unicode="&#xef;" horiz-adv-x="550" d="M-53 1325v236h213v-236h-213zM150 0v1112h251v-1112h-251zM395 1325v236h215v-236h-215z" />
<glyph unicode="&#xf0;" horiz-adv-x="1204" d="M98 539q0 129 27.5 229t73 162.5t108.5 103t128.5 56.5t139.5 16q102 0 152 -47q-19 60 -72.5 123.5t-113.5 103.5l-181 -141l-81 100l145 115q-79 50 -170 82q4 9 41 88t37 82q165 -55 272 -117l170 133l82 -100l-137 -109q385 -303 385 -868q0 -281 -131.5 -427.5 t-376.5 -146.5q-256 0 -377 136t-121 426zM358 535q0 -185 58 -263.5t186 -78.5q129 0 185.5 81t56.5 269q0 136 -27 215t-77.5 110t-133.5 31q-131 0 -189.5 -83.5t-58.5 -280.5z" />
<glyph unicode="&#xf1;" horiz-adv-x="1202" d="M145 0v1044q80 40 212.5 62t281.5 22q101 0 172.5 -13.5t130 -48t88 -100t29.5 -163.5v-803h-254v760q0 82 -39.5 116.5t-151.5 34.5q-120 0 -215 -20v-891h-254zM250 1327q-1 64 16 112t46.5 75t64 40t72.5 13q62 0 149.5 -37t130.5 -37q35 0 49.5 20.5t14.5 61.5h157 q0 -129 -56 -185.5t-140 -56.5q-62 0 -155 36t-126 36q-64 0 -61 -78h-162z" />
<glyph unicode="&#xf2;" horiz-adv-x="1204" d="M98 547q0 295 130.5 440.5t379.5 145.5q253 0 375.5 -135.5t122.5 -432.5q0 -295 -131 -440t-381 -145q-253 0 -374.5 135t-121.5 432zM299 1513l205 101l258 -305l-156 -43zM354 553q0 -195 59 -279t189 -84q129 0 187.5 84.5t58.5 284.5q0 198 -58.5 282.5t-185.5 84.5 q-132 0 -191 -85.5t-59 -287.5z" />
<glyph unicode="&#xf3;" horiz-adv-x="1204" d="M98 547q0 295 130.5 440.5t379.5 145.5q253 0 375.5 -135.5t122.5 -432.5q0 -295 -131 -440t-381 -145q-253 0 -374.5 135t-121.5 432zM354 553q0 -195 59 -279t189 -84q129 0 187.5 84.5t58.5 284.5q0 198 -58.5 282.5t-185.5 84.5q-132 0 -191 -85.5t-59 -287.5z M449 1309l260 305l204 -101l-307 -247z" />
<glyph unicode="&#xf4;" horiz-adv-x="1204" d="M98 547q0 295 130.5 440.5t379.5 145.5q253 0 375.5 -135.5t122.5 -432.5q0 -295 -131 -440t-381 -145q-253 0 -374.5 135t-121.5 432zM260 1401l340 215l340 -215l-98 -105l-242 117l-242 -117zM354 553q0 -195 59 -279t189 -84q129 0 187.5 84.5t58.5 284.5 q0 198 -58.5 282.5t-185.5 84.5q-132 0 -191 -85.5t-59 -287.5z" />
<glyph unicode="&#xf5;" horiz-adv-x="1204" d="M98 547q0 295 130.5 440.5t379.5 145.5q253 0 375.5 -135.5t122.5 -432.5q0 -295 -131 -440t-381 -145q-253 0 -374.5 135t-121.5 432zM252 1327q-1 64 16 112t46.5 75t64 40t72.5 13q62 0 149.5 -37t130.5 -37q35 0 49.5 20.5t14.5 61.5h157q0 -129 -56 -185.5 t-140 -56.5q-62 0 -155 36t-126 36q-64 0 -61 -78h-162zM354 553q0 -195 59 -279t189 -84q129 0 187.5 84.5t58.5 284.5q0 198 -58.5 282.5t-185.5 84.5q-132 0 -191 -85.5t-59 -287.5z" />
<glyph unicode="&#xf6;" horiz-adv-x="1204" d="M98 547q0 295 130.5 440.5t379.5 145.5q253 0 375.5 -135.5t122.5 -432.5q0 -295 -131 -440t-381 -145q-253 0 -374.5 135t-121.5 432zM270 1325v236h213v-236h-213zM354 553q0 -195 59 -279t189 -84q129 0 187.5 84.5t58.5 284.5q0 198 -58.5 282.5t-185.5 84.5 q-132 0 -191 -85.5t-59 -287.5zM719 1325v236h215v-236h-215z" />
<glyph unicode="&#xf7;" horiz-adv-x="1245" d="M131 602v215h985v-215h-985zM506 219v227h235v-227h-235zM506 973v229h235v-229h-235z" />
<glyph unicode="&#xf8;" horiz-adv-x="1202" d="M98 547q0 295 130.5 440.5t379.5 145.5q137 0 238 -46l65 105l127 -74l-67 -110q133 -136 133 -443q0 -295 -130 -440t-380 -145q-141 0 -240 45l-63 -107l-125 76l67 106q-135 138 -135 447zM344 555q0 -144 27 -223l358 559q-48 31 -125 31q-134 0 -197 -85t-63 -282z M473 219q53 -29 129 -29q128 0 192 86.5t64 282.5q0 141 -24 217z" />
<glyph unicode="&#xf9;" horiz-adv-x="1196" d="M141 348v764h254v-727q0 -103 34 -144.5t138 -41.5q143 0 232 59q-4 82 -4 174v680h252v-1112h-195q-20 50 -31 90q-118 -106 -321 -106q-191 0 -275 95t-84 269zM293 1513l205 101l258 -305l-156 -43z" />
<glyph unicode="&#xfa;" horiz-adv-x="1196" d="M141 348v764h254v-727q0 -103 34 -144.5t138 -41.5q143 0 232 59q-4 82 -4 174v680h252v-1112h-195q-20 50 -31 90q-118 -106 -321 -106q-191 0 -275 95t-84 269zM440 1309l260 305l205 -101l-307 -247z" />
<glyph unicode="&#xfb;" horiz-adv-x="1196" d="M141 348v764h254v-727q0 -103 34 -144.5t138 -41.5q143 0 232 59q-4 82 -4 174v680h252v-1112h-195q-20 50 -31 90q-118 -106 -321 -106q-191 0 -275 95t-84 269zM254 1401l340 215l340 -215l-98 -105l-242 117l-242 -117z" />
<glyph unicode="&#xfc;" horiz-adv-x="1196" d="M141 348v764h254v-727q0 -103 34 -144.5t138 -41.5q143 0 232 59q-4 82 -4 174v680h252v-1112h-195q-20 50 -31 90q-118 -106 -321 -106q-191 0 -275 95t-84 269zM264 1325v236h213v-236h-213zM713 1325v236h215v-236h-215z" />
<glyph unicode="&#xfd;" horiz-adv-x="1122" d="M25 1112l385 -1112h75q-64 -231 -303 -231q-46 0 -108 10l-27 -197q50 -22 162 -22q108 0 195.5 33.5t148.5 96t103 137t73 171.5l350 1114h-245l-170 -545q-71 -231 -95 -364q-20 131 -96 360l-180 549h-268zM414 1309l260 305l205 -101l-308 -247z" />
<glyph unicode="&#xfe;" horiz-adv-x="1202" d="M150 -436v1964l253 28v-440q71 12 158 12q265 0 405 -138.5t140 -399.5q0 -285 -142.5 -437.5t-408.5 -152.5q-62 0 -152 12v-418zM403 225q63 -8 127 -8q169 0 242.5 93.5t73.5 275.5q0 169 -74 246t-223 77q-60 0 -146 -16v-668z" />
<glyph unicode="&#xff;" horiz-adv-x="1122" d="M25 1112l385 -1112h75q-64 -231 -303 -231q-46 0 -108 10l-27 -197q50 -22 162 -22q108 0 195.5 33.5t148.5 96t103 137t73 171.5l350 1114h-245l-170 -545q-71 -231 -95 -364q-20 131 -96 360l-180 549h-268zM238 1325v236h213v-236h-213zM686 1325v236h215v-236h-215z " />
<glyph unicode="&#x152;" horiz-adv-x="1990" d="M113 705q0 364 147.5 556.5t444.5 192.5q264 0 364 -154v134h801q1 2 -6 -55l-14 -114t-7 -55h-553v-360h514v-223h-514v-404h592v-223h-813v135q-52 -72 -137 -113.5t-227 -41.5q-592 0 -592 725zM385 713q0 -261 78 -385.5t248 -124.5q166 0 242.5 126t76.5 392 q0 261 -77.5 386.5t-245.5 125.5q-171 0 -246.5 -125.5t-75.5 -394.5z" />
<glyph unicode="&#x153;" horiz-adv-x="1890" d="M98 547q0 295 130 440.5t380 145.5q154 0 241.5 -41.5t141.5 -126.5q105 168 367 168q120 0 207.5 -35.5t139 -101t75.5 -150t24 -191.5t-16 -172h-686q12 -161 88 -223.5t246 -62.5q133 0 276 34l35 -186q-98 -61 -350 -61q-174 0 -270 43.5t-152 126.5 q-107 -174 -377 -174q-255 0 -377.5 135t-122.5 432zM358 553q0 -195 58.5 -276.5t193.5 -81.5q132 0 191 82.5t59 281.5q0 195 -58 278t-190 83q-137 0 -195.5 -83.5t-58.5 -283.5zM1106 668h450v45q-3 104 -52 160.5t-161 56.5q-105 0 -164.5 -63t-72.5 -199z" />
<glyph unicode="&#x178;" horiz-adv-x="1253" d="M8 1434h301l158 -297q134 -246 168 -338q22 59 162 336l151 299h285l-473 -871v-563h-260v563zM303 1579v236h213v-236h-213zM752 1579v236h215v-236h-215z" />
<glyph unicode="&#x2c6;" horiz-adv-x="1105" d="M213 1401l340 215l340 -215l-98 -105l-242 117l-242 -117z" />
<glyph unicode="&#x2dc;" horiz-adv-x="1105" d="M203 1327q-1 64 15.5 112t46 75t64 40t72.5 13q62 0 150 -37t131 -37q35 0 49 20.5t14 61.5h158q0 -129 -56 -185.5t-140 -56.5q-62 0 -155 36t-126 36q-64 0 -61 -78h-162z" />
<glyph unicode="&#x2000;" horiz-adv-x="935" />
<glyph unicode="&#x2001;" horiz-adv-x="1870" />
<glyph unicode="&#x2002;" horiz-adv-x="935" />
<glyph unicode="&#x2003;" horiz-adv-x="1870" />
<glyph unicode="&#x2004;" horiz-adv-x="623" />
<glyph unicode="&#x2005;" horiz-adv-x="467" />
<glyph unicode="&#x2006;" horiz-adv-x="311" />
<glyph unicode="&#x2007;" horiz-adv-x="311" />
<glyph unicode="&#x2008;" horiz-adv-x="233" />
<glyph unicode="&#x2009;" horiz-adv-x="374" />
<glyph unicode="&#x200a;" horiz-adv-x="103" />
<glyph unicode="&#x2010;" horiz-adv-x="915" d="M139 475v211h639v-211h-639z" />
<glyph unicode="&#x2011;" horiz-adv-x="915" d="M139 475v211h639v-211h-639z" />
<glyph unicode="&#x2012;" horiz-adv-x="915" d="M139 475v211h639v-211h-639z" />
<glyph unicode="&#x2013;" horiz-adv-x="1265" d="M141 487v187h983v-187h-983z" />
<glyph unicode="&#x2014;" horiz-adv-x="1976" d="M141 487v187h1694v-187h-1694z" />
<glyph unicode="&#x2018;" horiz-adv-x="475" d="M121 1044v33q0 130 43 260.5t102 221.5h144q-33 -84 -55.5 -199t-22.5 -227q0 -24 4 -64z" />
<glyph unicode="&#x2019;" horiz-adv-x="477" d="M109 1044q32 85 53.5 199.5t21.5 226.5q0 12 -1 33t-1 31l215 25v-33q0 -130 -43 -260.5t-102 -221.5h-143z" />
<glyph unicode="&#x201a;" horiz-adv-x="479" d="M59 -256q78 208 78 428q0 21 -4 61l215 25v-33q0 -130 -43 -259.5t-102 -221.5h-144z" />
<glyph unicode="&#x201c;" horiz-adv-x="823" d="M121 1044v33q0 130 43 260.5t102 221.5h144q-33 -84 -55.5 -199t-22.5 -227q0 -24 4 -64zM469 1044v33q0 130 43 260.5t102 221.5h144q-32 -86 -54 -200.5t-22 -225.5q0 -12 1 -33t1 -31z" />
<glyph unicode="&#x201d;" horiz-adv-x="825" d="M109 1044q32 85 53.5 199.5t21.5 226.5q0 12 -1 33t-1 31l215 25v-33q0 -130 -43 -260.5t-102 -221.5h-143zM457 1044q33 84 55.5 199t22.5 227q0 14 -5 64l215 25v-33q0 -130 -43 -260.5t-102 -221.5h-143z" />
<glyph unicode="&#x201e;" horiz-adv-x="829" d="M59 -256q78 208 78 428q0 21 -4 61l215 25v-33q0 -130 -43 -259.5t-102 -221.5h-144zM408 -256q33 84 55 199t22 229q0 10 -1 30.5t-1 30.5l213 25v-33q0 -130 -42.5 -260t-100.5 -221h-145z" />
<glyph unicode="&#x2022;" horiz-adv-x="923" d="M150 719q0 134 89.5 226.5t221.5 92.5q131 0 222 -93t91 -226t-90.5 -226.5t-218.5 -93.5q-134 0 -224.5 93t-90.5 227z" />
<glyph unicode="&#x2026;" horiz-adv-x="1708" d="M139 0v313h258v-313h-258zM725 0v313h258v-313h-258zM1313 0v313h258v-313h-258z" />
<glyph unicode="&#x202f;" horiz-adv-x="374" />
<glyph unicode="&#x2039;" horiz-adv-x="753" d="M98 565l275 389h268l-291 -389l291 -389h-268z" />
<glyph unicode="&#x203a;" horiz-adv-x="753" d="M113 176l290 389l-290 389h268l274 -389l-274 -389h-268z" />
<glyph unicode="&#x205f;" horiz-adv-x="467" />
<glyph unicode="&#x20ac;" horiz-adv-x="1255" d="M94 487v158h137v45q0 16 5 94h-142v160h166q58 242 226.5 368t404.5 126q183 0 270 -37l-39 -213q-107 22 -192 22q-313 0 -406 -266h400l-25 -160h-405q-5 -72 -5 -86v-53h381l-24 -158h-328q81 -268 406 -268q28 0 49 1t42 4t32 5t37.5 8t39.5 9l35 -211 q-80 -41 -276 -41q-251 0 -417 123t-216 370h-156z" />
<glyph unicode="&#x2122;" horiz-adv-x="1452" d="M127 1317v110h477l-12 -110h-158v-481h-139v481h-168zM666 836v591h186l133 -360l127 360h186v-591h-133v231q0 99 13 227l-140 -376h-112l-140 374q11 -168 11 -207v-249h-131z" />
<glyph unicode="&#x25fc;" horiz-adv-x="1116" d="M0 0v1116h1116v-1116h-1116z" />
</font>
</defs>
</svg>
